<svg xmlns="http://www.w3.org/2000/svg" width="40" height="40" style="shape-rendering:geometricPrecision;text-rendering:geometricPrecision;image-rendering:optimizeQuality;fill-rule:evenodd;clip-rule:evenodd"><path fill="#c0bcd9" d="M12.5 5.5a18.436 18.436 0 0 1 6 .5A9.468 9.468 0 0 0 17 8.5c-.893-1.211-1.726-1.211-2.5 0-1.093 3.608-1.26 7.274-.5 11 2.734.862 2.901 1.695.5 2.5 1.167.5 2 1.333 2.5 2.5a4.452 4.452 0 0 1 1.5-2c.886 10.462 2.22 10.462 4 0a26.706 26.706 0 0 1 1.5 7c.186-2.536.686-4.869 1.5-7h1c1.041 3.861 2.041 3.861 3 0a32.437 32.437 0 0 1-.5 8 7.291 7.291 0 0 1-2-3 38.053 38.053 0 0 1-2.5 6.5c-1.634.493-3.3.66-5 .5a11.989 11.989 0 0 1-6-1c-.886-.825-1.219-1.825-1-3-1.791.134-3.458-.2-5-1a13.117 13.117 0 0 1 1-7c1.22-1.211 2.387-1.211 3.5 0 .5-5.657.666-11.324.5-17Z" style="opacity:.698"/><path fill="#8985a1" d="M12.5.5v-1h13c6.308 2.975 10.975 7.641 14 14v12c-1.333 1.333-1.333 2.667 0 4v4l-4 1c-3.047.317-4.713-1.016-5-4a28.917 28.917 0 0 0 3.5-5c2.434-8.495.1-15.162-7-20-.5 5.657-.666 11.324-.5 17h-1a81.872 81.872 0 0 0-1-18c-2.977-2.203-6.144-2.537-9.5-1-.236-1.62-1.069-2.62-2.5-3Z" style="opacity:.698"/><path fill="#413e59" d="M12.5 5.5c.166 5.676 0 11.343-.5 17-1.113-1.211-2.28-1.211-3.5 0a13.117 13.117 0 0 0-1 7c-4.632-5.885-5.132-12.218-1.5-19 1.777-2.29 3.944-3.957 6.5-5Z" style="opacity:.698"/><path fill="#57546f" d="M30.5 30.5c.306-2.885-.027-5.552-1-8-.959 3.861-1.959 3.861-3 0-.166-5.676 0-11.343.5-17 7.1 4.838 9.434 11.505 7 20a28.917 28.917 0 0 1-3.5 5Z" style="opacity:.698"/><path fill="#8985a2" d="M12.5.5c1.062 1.734 1.062 3.4 0 5-2.556 1.043-4.723 2.71-6.5 5-3.632 6.782-3.132 13.115 1.5 19 1.542.8 3.209 1.134 5 1-.219 1.175.114 2.175 1 3a11.989 11.989 0 0 0 6 1c-.17 1.322.163 2.489 1 3.5-1.361-1.376-2.861-2.21-4.5-2.5a4.932 4.932 0 0 0-.5 3c-3.297.171-3.63-.495-1-2-2.306-1.27-4.306-.938-6 1a37.655 37.655 0 0 0-9-4v-4c1.333-1 1.333-2 0-3v-14c2.394-6.06 6.727-10.06 13-12Z" style="opacity:.698"/><path fill="#a7a3bf" d="M12.5.5c1.431.38 2.264 1.38 2.5 3 3.356-1.537 6.523-1.203 9.5 1a81.872 81.872 0 0 1 1 18c-.814 2.131-1.314 4.464-1.5 7a26.706 26.706 0 0 0-1.5-7c-1.78 10.462-3.114 10.462-4 0a4.452 4.452 0 0 0-1.5 2c-.5-1.167-1.333-2-2.5-2.5 2.401-.805 2.234-1.638-.5-2.5-.76-3.726-.593-7.392.5-11 .774-1.211 1.607-1.211 2.5 0A9.468 9.468 0 0 1 18.5 6a18.436 18.436 0 0 0-6-.5c1.062-1.6 1.062-3.266 0-5Z" style="opacity:.698"/><path fill="#807c99" d="M29.5 22.5c.973 2.448 1.306 5.115 1 8 .287 2.984 1.953 4.317 5 4-2.154 2.488-4.82 4.154-8 5h-16l-3-2c1.694-1.938 3.694-2.27 6-1-2.63 1.505-2.297 2.171 1 2a4.932 4.932 0 0 1 .5-3c1.639.29 3.139 1.124 4.5 2.5-.837-1.011-1.17-2.178-1-3.5 1.7.16 3.366-.007 5-.5a38.053 38.053 0 0 0 2.5-6.5 7.291 7.291 0 0 0 2 3c.497-2.646.664-5.313.5-8Z" style="opacity:.698"/></svg>