<svg aria-hidden="true" style="position: absolute; width: 0; height: 0; overflow: hidden;" version="1.1" xmlns="http://www.w3.org/2000/svg" xmlns:xlink="http://www.w3.org/1999/xlink">
<defs>
<symbol id="icon-menu" viewBox="0 0 32 32">
<path fill="#16103e" style="fill: var(--color2, #16103e)" opacity="0.8" d="M9.201 10.401h13.602c0.663 0 1.2 0.537 1.2 1.2s-0.537 1.2-1.2 1.2h-13.602c-0.663 0-1.2-0.537-1.2-1.2s0.537-1.2 1.2-1.2z"></path>
<path fill="#16103e" style="fill: var(--color2, #16103e)" opacity="0.8" d="M9.201 15.202h13.602c0.663 0 1.2 0.537 1.2 1.2s-0.537 1.2-1.2 1.2h-13.602c-0.663 0-1.2-0.537-1.2-1.2s0.537-1.2 1.2-1.2z"></path>
<path fill="#16103e" style="fill: var(--color2, #16103e)" opacity="0.8" d="M9.201 20.002h13.602c0.663 0 1.2 0.537 1.2 1.2s-0.537 1.2-1.2 1.2h-13.602c-0.663 0-1.2-0.537-1.2-1.2s0.537-1.2 1.2-1.2z"></path>
</symbol>
<symbol id="icon-logo" viewBox="0 0 30 32">
<path fill="#EA1D25" style="fill: var(--color3, #EA1D25)" d="M29.299 5.811v0.37c-0.074 0.89-0.149 1.854-0.298 2.743-0.149 0.89-1.12 1.483-1.941 1.112-1.867-0.668-3.883-1.186-5.824-1.557-3.806-0.668-7.689-0.816-11.571-0.223-0.15 0-0.374 0.074-0.524 0.074-1.269 0.223-2.538 0.446-3.732 0.742-1.269 0.37-1.718 1.334-1.792 2.298 0 1.186 0.522 2.299 1.419 2.966l0.074 0.074c-0.373-0.297-0.821-0.593-1.269-0.964-2.165-1.854-3.583-4.449-3.806-7.266v-0.37c0-1.557 0.969-2.966 2.314-3.559 0.074 0 0.149-0.074 0.224-0.074h0.074c6.42-2.223 13.139-2.595 19.485-1.26 1.493 0.297 2.911 0.741 4.33 1.186 0.149 0.073 0.298 0.073 0.448 0.149 1.417 0.592 2.389 1.927 2.389 3.558z"></path>
<path fill="#981b1e" style="fill: var(--color4, #981b1e)" d="M18.25 15.449c0 0.668-0.149 1.261-0.448 1.78 0 0 0 0.074-0.074 0.074-0.448 0.889-0.972 1.78-1.568 2.595-0.597-0.223-1.269-0.37-1.867-0.593-0.895-0.297-1.717-0.668-2.612-1.038-2.24-1.038-4.481-2.224-6.496-3.707-0.074-0.074-0.149-0.074-0.149-0.149l-0.075-0.074c-0.895-0.741-1.417-1.78-1.417-2.965 0.074-0.965 0.522-1.928 1.791-2.299 1.194-0.297 2.463-0.594 3.733-0.742 0.522 0.37 1.045 0.742 1.641 1.038 1.278 0.78 2.821 1.596 4.412 2.326l0.291 0.12c0.224 0.075 0.522 0.223 0.746 0.297 1.269 0.594 2.092 1.854 2.092 3.338z"></path>
<path fill="#EA1D25" style="fill: var(--color3, #EA1D25)" d="M25.941 17.747c-0.075 3.114-6.57 11.122-9.407 12.9-1.12 0.594-2.538 0.668-3.658 0.074-0.972-0.593-1.717-1.334-2.463-2.149-0.598-0.594-0.524-1.484 0.074-2.077 1.045-0.964 2.015-1.928 2.911-2.966 1.643-1.927 3.135-4.003 4.33-6.227 1.12-1.78 0.299-4.374-1.567-5.265 1.12 0.446 2.314 0.816 3.434 1.186 2.837 0.816 6.271 0.816 6.346 4.523z"></path>
</symbol>
<symbol id="icon-close" viewBox="0 0 32 32">
<path fill="#16103e" style="fill: var(--color2, #16103e)" opacity="0.5" d="M16.467 17.867l-6.767 6.767c-0.176 0.173-0.416 0.281-0.682 0.283h-0c-0.016 0.001-0.034 0.002-0.052 0.002-0.261 0-0.497-0.109-0.665-0.284l-0-0c-0.185-0.175-0.3-0.423-0.3-0.697 0-0.001 0-0.002 0-0.003v0c0-0.267 0.1-0.5 0.3-0.7l6.767-6.767-6.767-6.767c-0.173-0.176-0.281-0.417-0.283-0.684v-0c-0.001-0.015-0.001-0.033-0.001-0.051 0-0.261 0.109-0.497 0.284-0.665l0-0c0.175-0.185 0.423-0.3 0.697-0.3 0.001 0 0.002 0 0.003 0h-0c0.267 0 0.5 0.1 0.7 0.3l6.767 6.767 6.767-6.767c0.176-0.174 0.417-0.282 0.684-0.284h0c0.014-0.001 0.031-0.001 0.048-0.001 0.262 0 0.499 0.109 0.667 0.285l0 0c0.185 0.175 0.3 0.423 0.3 0.697 0 0.001 0 0.002 0 0.003v-0c0 0.001 0 0.002 0 0.003 0 0.274-0.115 0.522-0.3 0.697l-0 0-6.767 6.767 6.767 6.767c0.173 0.176 0.281 0.416 0.283 0.682v0c0.001 0.016 0.002 0.034 0.002 0.052 0 0.261-0.109 0.497-0.284 0.665l-0 0c-0.175 0.185-0.423 0.3-0.697 0.3-0.001 0-0.002 0-0.003 0h0c-0.001 0-0.002 0-0.003 0-0.274 0-0.522-0.115-0.697-0.3l-0-0-6.767-6.767z"></path>
</symbol>
<symbol id="icon-down" viewBox="0 0 44 32">
<path fill="#16103e" style="fill: var(--color2, #16103e)" opacity="0.5" d="M22.619 28.080c-0.486-0-0.949-0.094-1.374-0.265l0.025 0.009c-0.45-0.172-0.835-0.425-1.153-0.745l-18.015-18.015c-0.555-0.527-0.901-1.269-0.901-2.093 0-0.003 0-0.006 0-0.009v0c0-0.801 0.3-1.501 0.901-2.106 0.526-0.553 1.268-0.897 2.089-0.897 0.004 0 0.009 0 0.013 0h-0.001c0.801 0 1.501 0.3 2.102 0.897l16.313 16.313 16.313-16.309c0.526-0.555 1.269-0.901 2.093-0.901 0.003 0 0.006 0 0.009 0h-0c0.801 0 1.501 0.3 2.102 0.897 0.555 0.527 0.901 1.269 0.901 2.093 0 0.004 0 0.009-0 0.013v-0.001c0 0.003 0 0.006 0 0.009 0 0.824-0.346 1.567-0.899 2.092l-0.001 0.001-18.015 18.015c-0.317 0.318-0.7 0.571-1.127 0.737l-0.022 0.008c-0.401 0.162-0.866 0.256-1.353 0.256h-0z"></path>
</symbol>
<symbol id="icon-logo-slot" viewBox="0 0 169 32">
<path fill="#16103e" style="fill: var(--color2, #16103e)" d="M0.577 19.463l3.779-2.236c0.884 2.236 2.572 3.434 5.145 3.434 2.491 0 3.616-0.959 3.616-2.395 0-0.799-0.32-1.438-1.045-1.836-0.724-0.48-1.929-0.959-3.779-1.438-2.009-0.639-3.215-1.118-4.662-2.075-1.366-1.039-2.090-2.555-2.090-4.63 0-1.996 0.724-3.673 2.171-4.79 1.445-1.198 3.215-1.836 5.224-1.836 3.619 0 6.511 1.836 8.039 5.029l-3.697 2.156c-0.884-1.916-2.331-2.875-4.341-2.875-1.849 0-2.975 0.959-2.975 2.236 0 0.718 0.322 1.278 0.885 1.756 0.643 0.399 1.769 0.878 3.376 1.436l1.527 0.48c0.321 0.079 0.804 0.319 1.447 0.559 0.643 0.239 1.125 0.479 1.446 0.638 0.644 0.4 1.689 1.198 2.091 1.996 0.481 0.799 0.804 1.916 0.804 3.194 0 2.075-0.804 3.672-2.252 4.949-1.526 1.198-3.456 1.836-5.867 1.836-4.421-0.080-7.557-2.235-8.842-5.588zM20.352 24.491v-23.312h4.18v23.312h-4.18zM35.707 24.971c-2.412 0-4.421-0.798-6.030-2.395-1.607-1.596-2.411-3.673-2.411-5.988 0-2.395 0.804-4.31 2.412-5.988 1.607-1.676 3.697-2.474 6.029-2.474s4.421 0.798 6.029 2.474c1.609 1.598 2.492 3.594 2.492 5.988 0 2.395-0.804 4.392-2.492 5.988-1.608 1.596-3.617 2.395-6.029 2.395zM35.707 20.899c1.286 0 2.251-0.399 3.135-1.278 0.804-0.799 1.286-1.916 1.286-3.193 0-1.278-0.401-2.315-1.286-3.194-0.804-0.799-1.849-1.278-3.135-1.278s-2.251 0.4-3.135 1.278c-0.804 0.799-1.206 1.916-1.206 3.194 0 1.276 0.402 2.314 1.206 3.193 0.884 0.879 1.929 1.278 3.135 1.278zM56.047 12.516h-3.617v6.627c0 1.756 1.286 1.756 3.619 1.596v3.753c-5.709 0.638-7.799-0.959-7.799-5.349v-6.627h-2.814v-3.994h2.814v-3.192l4.18-1.278v4.47h3.619v3.993zM62.239 18.184c0.563 1.996 2.090 3.034 4.501 3.034 1.609 0 2.814-0.559 3.619-1.596l3.376 1.916c-1.609 2.235-3.939 3.434-6.995 3.434-2.652 0-4.824-0.8-6.431-2.396s-2.412-3.593-2.412-6.068c0-2.394 0.805-4.39 2.412-5.987 1.608-1.598 3.619-2.395 6.11-2.395 2.331 0 4.341 0.798 5.789 2.395 1.526 1.596 2.331 3.592 2.331 5.987 0 0.56-0.081 1.119-0.16 1.678h-12.14zM70.439 14.991c-0.483-2.155-2.090-3.194-4.020-3.194-2.251 0-3.697 1.198-4.18 3.194h8.2zM89.568 8.521h4.019v15.169c0 2.475-0.804 4.312-2.491 5.669-1.609 1.278-3.619 1.915-5.95 1.915-3.456 0-6.19-1.356-7.636-3.912l3.536-1.996c0.805 1.518 2.252 2.236 4.181 2.236 2.572 0 4.18-1.438 4.18-3.913v-1.756c-1.206 1.596-2.894 2.395-5.145 2.395s-4.18-0.799-5.707-2.395c-1.528-1.596-2.252-3.513-2.252-5.828s0.805-4.152 2.332-5.748c1.528-1.598 3.457-2.395 5.707-2.395 2.252 0 3.939 0.798 5.145 2.395v-1.836h0.081zM88.202 13.151c-0.805-0.799-1.93-1.278-3.216-1.278s-2.412 0.4-3.216 1.278c-0.794 0.774-1.287 1.854-1.287 3.049 0 0.023 0 0.046 0.001 0.068l-0-0.003c0 2.554 1.93 4.39 4.502 4.39s4.501-1.835 4.501-4.39c0.081-1.278-0.401-2.315-1.286-3.114zM101.385 11.317c0.804-2.075 2.733-3.033 4.904-3.033v4.63c-1.286-0.16-2.412 0.080-3.376 0.798-0.965 0.64-1.447 1.756-1.447 3.274v7.665h-4.179v-15.969h4.18v2.634h-0.080zM120.598 8.522h4.18v15.968h-4.18v-1.915c-1.286 1.596-2.975 2.314-5.225 2.314-2.171 0-4.020-0.798-5.547-2.394s-2.251-3.673-2.251-5.988c0-2.395 0.804-4.312 2.251-5.988 1.526-1.596 3.376-2.474 5.547-2.474 2.25 0 4.019 0.798 5.225 2.314v-1.836zM116.095 21.057c1.286 0 2.332-0.399 3.216-1.278 0.884-0.878 1.286-1.915 1.286-3.274 0-1.276-0.403-2.394-1.286-3.193-0.804-0.878-1.93-1.278-3.216-1.278s-2.331 0.4-3.215 1.278c-0.804 0.799-1.286 1.916-1.286 3.194s0.401 2.395 1.286 3.274c0.884 0.798 1.929 1.276 3.215 1.276zM137.562 12.516h-3.617v6.627c0 1.756 1.286 1.756 3.617 1.596v3.753c-5.707 0.638-7.797-0.959-7.797-5.349v-6.627h-2.814v-3.994h2.814v-3.192l4.18-1.278v4.47h3.617v3.993zM147.855 24.971c-2.412 0-4.422-0.798-6.030-2.395-1.607-1.596-2.411-3.673-2.411-5.988 0-2.395 0.804-4.31 2.411-5.988 1.607-1.596 3.697-2.474 6.030-2.474 2.411 0 4.421 0.798 6.029 2.474 1.607 1.598 2.492 3.594 2.492 5.988 0 2.395-0.804 4.392-2.492 5.988s-3.697 2.395-6.029 2.395zM147.855 20.899c1.286 0 2.25-0.399 3.135-1.278 0.884-0.878 1.286-1.916 1.286-3.193 0-1.278-0.403-2.315-1.286-3.194-0.804-0.799-1.849-1.278-3.135-1.278s-2.251 0.4-3.136 1.278c-0.804 0.799-1.205 1.916-1.205 3.194 0 1.276 0.401 2.314 1.205 3.193s1.85 1.278 3.136 1.278zM163.207 11.317c0.804-2.075 2.732-3.033 4.904-3.033v4.63c-1.286-0.16-2.412 0.080-3.376 0.798-0.965 0.64-1.447 1.756-1.447 3.274v7.665h-4.18v-15.969h4.18v2.634h-0.080z"></path>
</symbol>
<symbol id="icon-flag-gd" viewBox="0 0 33 32">
<path fill="#dadada" style="fill: var(--color5, #dadada)" d="M16.369 0.006c8.837 0 16 7.163 16 16s-7.163 16-16 16c-8.837 0-16-7.163-16-16s7.163-16 16-16z"></path>
<path fill="#fff" style="fill: var(--color6, #fff)" d="M-2.83 0.006h38.4c1.767 0 3.2 1.433 3.2 3.2v25.6c0 1.767-1.433 3.2-3.2 3.2h-38.4c-1.767 0-3.2-1.433-3.2-3.2v-25.6c0-1.767 1.433-3.2 3.2-3.2z"></path>
<path fill="#262626" style="fill: var(--color7, #262626)" d="M-6.031 10.673h44.8v-10.667h-44.8v10.667z"></path>
<path fill="#f01515" style="fill: var(--color8, #f01515)" d="M-6.031 21.339h44.8v-10.666h-44.8v10.666z"></path>
<path fill="#ffd521" style="fill: var(--color9, #ffd521)" d="M-6.031 32.006h44.8v-10.667h-44.8v10.667z"></path>
</symbol>
<symbol id="icon-flag-eng" viewBox="0 0 32 32">
<path fill="#dadada" style="fill: var(--color1, #dadada)" d="M16.006 0c8.84 0 16.006 7.166 16.006 16.006s-7.166 16.006-16.006 16.006c-8.84 0-16.006-7.166-16.006-16.006s7.166-16.006 16.006-16.006z"></path>
<path fill="#fff" style="fill: var(--color2, #fff)" d="M-3.202 0h38.413c1.768 0 3.201 1.433 3.201 3.201v25.609c0 1.768-1.433 3.201-3.201 3.201h-38.413c-1.768 0-3.201-1.433-3.201-3.201v-25.609c0-1.768 1.433-3.201 3.201-3.201z"></path>
<path fill="#0a17a7" style="fill: var(--color3, #0a17a7)" d="M-6.403 0h44.816v32.011h-44.816z"></path>
<path fill="#fff" style="fill: var(--color2, #fff)" d="M4.272 21.34l-15.119 10.198 2.386 3.538 19.123-12.898v11.966h10.67v-11.971l19.132 12.903 2.386-3.537-15.12-10.199h10.676v-10.671h-10.679l15.12-10.199-2.387-3.538-19.127 12.902v-11.969h-10.67v11.962l-19.121-12.896-2.385 3.538 15.12 10.199h-10.687v10.671h10.682z"></path>
<path fill="none" stroke="#db1f35" style="stroke: var(--color4, #db1f35)" stroke-linejoin="miter" stroke-linecap="round" stroke-miterlimit="4" stroke-width="1.0671" d="M23.479 10.135l20.272-13.336M25.626 21.924l18.172 12.249M6.412 10.1l-18.956-12.774M8.468 21.775l-21.012 13.934"></path>
<path fill="#e6273e" style="fill: var(--color5, #e6273e)" d="M-6.402 19.207h19.207v12.804h6.402v-12.804h19.207v-6.402h-19.207v-12.804h-6.402v12.804h-19.207v6.402z"></path>
</symbol>
<symbol id="icon-other-lang" viewBox="0 0 32 32">
<path fill="#e6ebee" style="fill: var(--color6, #e6ebee)" d="M16.006 0c8.84 0 16.006 7.166 16.006 16.006s-7.166 16.006-16.006 16.006c-8.84 0-16.006-7.166-16.006-16.006s7.166-16.006 16.006-16.006z"></path>
<path fill="#16103e" style="fill: var(--color7, #16103e)" d="M16.006 27.086c-0.021 0-0.047 0-0.072 0-1.539 0-3.002-0.322-4.327-0.901l0.069 0.027c-1.364-0.588-2.529-1.385-3.513-2.364l0 0c-0.978-0.984-1.774-2.149-2.334-3.441l-0.028-0.072c-0.554-1.257-0.877-2.723-0.877-4.263 0-0.023 0-0.046 0-0.069l-0 0.004c0-1.535 0.292-2.979 0.874-4.331 0.588-1.364 1.385-2.528 2.364-3.512l-0 0c0.983-0.979 2.149-1.776 3.44-2.336l0.072-0.028c1.255-0.553 2.719-0.874 4.258-0.874 0.025 0 0.051 0 0.076 0l-0.004-0c1.535 0 2.98 0.292 4.331 0.874 1.364 0.588 2.528 1.385 3.512 2.364l-0-0c0.978 0.983 1.775 2.149 2.335 3.44l0.028 0.072c0.582 1.352 0.874 2.795 0.874 4.331 0 1.535-0.292 2.98-0.874 4.33-0.588 1.364-1.384 2.53-2.363 3.514l0.001-0.001c-0.983 0.978-2.149 1.775-3.44 2.335l-0.072 0.028c-1.255 0.552-2.718 0.873-4.257 0.873-0.026 0-0.052-0-0.077-0l0.004 0zM14.84 25.279v-2.275c-0.641 0-1.191-0.228-1.647-0.685-0.423-0.409-0.686-0.982-0.686-1.617 0-0.011 0-0.021 0-0.032l-0 0.002v-1.167l-5.599-5.598c-0.059 0.35-0.112 0.699-0.161 1.049-0.046 0.315-0.072 0.68-0.073 1.050v0c0 2.352 0.773 4.413 2.318 6.182s3.494 2.8 5.847 3.090zM22.888 22.304c0.388-0.428 0.739-0.89 1.049-1.386 0.311-0.495 0.569-1.010 0.773-1.545 0.204-0.534 0.36-1.083 0.468-1.647 0.106-0.563 0.159-1.136 0.159-1.72 0-1.905-0.529-3.651-1.588-5.235-1.026-1.541-2.476-2.727-4.183-3.404l-0.061-0.021v0.495c0 0.641-0.228 1.191-0.685 1.647-0.409 0.423-0.982 0.686-1.616 0.686-0.011 0-0.023-0-0.034-0l0.002 0h-2.332v2.333c0 0.33-0.112 0.607-0.335 0.83-0.205 0.208-0.489 0.336-0.804 0.336-0.010 0-0.020-0-0.030-0l0.001 0h-2.332v2.333h6.998c0.33 0 0.607 0.111 0.831 0.335 0.207 0.205 0.335 0.49 0.335 0.804 0 0.010-0 0.019-0 0.029l0-0.001v3.5h1.166c0.506 0 0.963 0.15 1.372 0.451 0.408 0.302 0.689 0.696 0.846 1.182z"></path>
</symbol>
<symbol id="icon-search" viewBox="0 0 31 32">
<path fill="#16103e" style="fill: var(--color1, #16103e)" opacity="0.7" d="M13.533 9.335c-2.762 0-5.001 2.239-5.001 5.001s2.239 5.001 5.001 5.001v0c2.762 0 5.001-2.239 5.001-5.001s-2.239-5.001-5.001-5.001v0zM9.054 9.856c1.145-1.14 2.725-1.845 4.469-1.845 3.498 0 6.334 2.836 6.334 6.334 0 1.508-0.527 2.893-1.407 3.98l0.009-0.012 4.545 4.55-0.944 0.942-4.544-4.549c-1.075 0.869-2.459 1.394-3.965 1.394-3.498 0-6.334-2.836-6.334-6.334 0-1.74 0.701-3.316 1.837-4.461l-0 0z"></path>
</symbol>
<symbol id="icon-email" viewBox="0 0 32 32">
<path fill="#16103e" style="fill: var(--color1, #16103e)" d="M26.68 10.669l-10.669 6.668-10.671-6.668v-2.669l10.671 6.67 10.669-6.67v2.669zM26.68 5.333h-21.34c-1.48 0-2.667 1.186-2.667 2.667v16.005c0 0.001 0 0.001 0 0.002 0 1.473 1.194 2.667 2.667 2.667h21.34c1.473 0 2.667-1.194 2.667-2.667 0-0.001 0-0.001 0-0.002v0-16.003c0-1.473-1.194-2.667-2.667-2.667v0z"></path>
</symbol>
<symbol id="icon-phone" viewBox="0 0 32 32">
<path fill="#16103e" style="fill: var(--color1, #16103e)" d="M8.829 14.39c1.967 3.801 4.989 6.824 8.678 8.738l0.112 0.053 2.933-2.935c0.243-0.246 0.58-0.398 0.953-0.398 0.146 0 0.286 0.023 0.417 0.066l-0.009-0.003c1.494 0.494 3.095 0.76 4.761 0.76 0.737 0 1.334 0.597 1.334 1.334v0 4.667c0 0.001 0 0.001 0 0.002 0 0.736-0.597 1.332-1.332 1.332-0.001 0-0.001 0-0.002 0h0c-12.522 0-22.672-10.151-22.672-22.672v0c0-0.737 0.597-1.334 1.334-1.334v0h4.667c0.737 0 1.334 0.597 1.334 1.334v0c0 1.666 0.266 3.267 0.76 4.761 0.040 0.122 0.064 0.262 0.064 0.408 0 0.373-0.152 0.709-0.398 0.952l-2.935 2.933z"></path>
</symbol>
<symbol id="icon-skype" viewBox="0 0 32 32">
<path fill="#16103e" style="fill: var(--color1, #16103e)" d="M24.007 8.002c2.063 2.038 3.34 4.867 3.34 7.994 0 0.734-0.070 1.451-0.205 2.145l0.011-0.071c0.54 0.942 0.859 2.070 0.859 3.274 0 3.683-2.985 6.668-6.668 6.668-1.203 0-2.332-0.319-3.306-0.876l0.033 0.017c-0.624 0.123-1.341 0.193-2.075 0.193-3.127 0-5.956-1.277-7.993-3.339l-0.001-0.001c-2.063-2.039-3.34-4.868-3.34-7.995 0-0.733 0.070-1.45 0.204-2.145l-0.011 0.071c-0.54-0.942-0.859-2.071-0.859-3.274 0-3.683 2.985-6.668 6.668-6.668 1.203 0 2.332 0.319 3.306 0.876l-0.033-0.017c0.624-0.123 1.34-0.193 2.074-0.193 3.127 0 5.956 1.277 7.994 3.339l0.001 0.001zM16.059 22.887c3.827 0 5.734-1.841 5.734-4.321 0-1.586-0.746-3.281-3.641-3.935l-2.653-0.586c-1.014-0.226-2.161-0.534-2.161-1.48 0-0.96 0.8-1.626 2.267-1.626 2.975 0 2.695 2.041 4.175 2.041 0.772 0 1.44-0.454 1.44-1.24 0-1.829-2.921-3.201-5.402-3.201-2.681 0-5.55 1.146-5.55 4.187 0 1.466 0.52 3.027 3.401 3.747l3.589 0.908c1.080 0.266 1.346 0.866 1.346 1.426 0 0.906-0.906 1.8-2.547 1.8-3.215 0-2.775-2.467-4.495-2.467-0.774 0-1.334 0.532-1.334 1.292 0 1.48 1.774 3.455 5.83 3.455z"></path>
</symbol>
<symbol id="icon-linkedin" viewBox="0 0 32 32">
<path fill="#16103e" style="fill: var(--color1, #16103e)" d="M30.375 0.375h-28.748c-0.001 0-0.002 0-0.003 0-0.689 0-1.248 0.559-1.248 1.248 0 0.001 0 0.002 0 0.003v-0 28.748c0 0.692 0.56 1.251 1.251 1.251h28.747c0 0 0.001 0 0.001 0 0.69 0 1.249-0.559 1.249-1.249 0-0 0-0.001 0-0.001v0-28.747c0-0.001 0-0.003 0-0.004 0-0.69-0.559-1.249-1.249-1.249-0 0-0.001 0-0.001 0h0zM9.644 27.004h-4.636v-14.915h4.636v14.915zM7.328 10.051c-0.018 0-0.039 0.001-0.060 0.001-1.485 0-2.688-1.203-2.688-2.688s1.203-2.688 2.688-2.688c0.021 0 0.042 0 0.063 0.001l-0.003-0c1.459 0.034 2.628 1.224 2.628 2.687s-1.17 2.654-2.625 2.687l-0.003 0zM27.004 27.004h-4.633v-7.253c0-1.731-0.031-3.953-2.409-3.953-2.411 0-2.781 1.883-2.781 3.827v7.38h-4.629v-14.915h4.445v2.040h0.063c0.617-1.173 2.129-2.411 4.387-2.411 4.695 0 5.559 3.089 5.559 7.107v8.179z"></path>
</symbol>
<symbol id="icon-youtube" viewBox="0 0 43 32">
<path fill="#16103e" style="fill: var(--color1, #16103e)" d="M42.203 5.887c-0.499-1.815-1.898-3.216-3.675-3.708l-0.037-0.009c-3.277-0.883-16.411-0.883-16.411-0.883s-13.134 0-16.411 0.877c-1.815 0.5-3.215 1.901-3.703 3.68l-0.009 0.037c-0.877 3.282-0.877 10.126-0.877 10.126s0 6.843 0.877 10.12c0.499 1.815 1.898 3.216 3.675 3.708l0.037 0.009c3.277 0.883 16.411 0.883 16.411 0.883s13.134 0 16.411-0.88c1.815-0.5 3.215-1.902 3.703-3.681l0.009-0.037c0.877-3.277 0.877-10.12 0.877-10.12s0-6.843-0.877-10.12zM17.909 22.287v-12.56l10.874 6.234-10.874 6.328z"></path>
</symbol>
<symbol id="icon-facebook" viewBox="0 0 32 32">
<path fill="#16103e" style="fill: var(--color1, #16103e)" d="M15.517 0.618c-8.499 0-15.389 6.89-15.389 15.389 0 7.679 5.627 14.044 12.984 15.203v-10.755h-3.909v-4.448h3.909v-3.391c0-3.86 2.299-5.989 5.811-5.989 1.684 0 3.447 0.3 3.447 0.3v3.783h-1.945c-1.908 0-2.506 1.188-2.506 2.406v2.885h4.265l-0.682 4.45h-3.583v10.755c7.359-1.152 12.985-7.519 12.985-15.2 0-8.499-6.891-15.389-15.39-15.389z"></path>
</symbol>
<symbol id="icon-instagram" viewBox="0 0 33 32">
<path fill="#16103e" style="fill: var(--color1, #16103e)" d="M16.536 10.792c-2.873 0.008-5.199 2.335-5.206 5.207v0.001c0.007 2.874 2.335 5.202 5.208 5.208h0.001c2.873-0.007 5.2-2.334 5.206-5.207v-0.001c-0.006-2.874-2.334-5.202-5.207-5.208h-0.001zM32.159 16c0-2.156 0.019-4.294-0.101-6.447-0.121-2.5-0.693-4.721-2.52-6.548-1.832-1.832-4.047-2.4-6.548-2.52-2.159-0.12-4.295-0.101-6.448-0.101-2.156 0-4.294-0.020-6.447 0.101-2.5 0.12-4.721 0.692-6.548 2.52-1.832 1.832-2.4 4.046-2.52 6.548-0.12 2.156-0.101 4.294-0.101 6.447s-0.020 4.294 0.101 6.447c0.12 2.5 0.691 4.72 2.52 6.548 1.832 1.832 4.047 2.399 6.548 2.52 2.156 0.12 4.294 0.101 6.447 0.101 2.156 0 4.294 0.019 6.447-0.101 2.5-0.121 4.72-0.692 6.548-2.52 1.832-1.832 2.399-4.047 2.52-6.548 0.124-2.152 0.101-4.29 0.101-6.447zM16.536 24.013c-0.004 0-0.008 0-0.012 0-4.419 0-8.001-3.582-8.001-8.001 0-0.005 0-0.009 0-0.014v0.001c0-0.003 0-0.007 0-0.011 0-4.419 3.582-8.001 8.001-8.001 0.004 0 0.008 0 0.013 0h-0.001c0.004 0 0.009 0 0.013 0 4.419 0 8.001 3.582 8.001 8.001 0 0.004 0 0.008 0 0.013v-0.001c0 0.004 0 0.008 0 0.012 0 4.419-3.582 8.001-8.001 8.001-0.005 0-0.009 0-0.014 0h0.001zM24.878 9.531c-0.001 0-0.002 0-0.003 0-1.033 0-1.87-0.837-1.87-1.87 0-0.001 0-0.002 0-0.003v0c0-1.035 0.836-1.871 1.872-1.871 0.001 0 0.003 0 0.004 0 1.033 0 1.87 0.837 1.87 1.87 0 0.518-0.211 0.987-0.551 1.325l-0 0c-0.338 0.338-0.806 0.547-1.322 0.547-0 0-0.001 0-0.001 0h0z"></path>
</symbol>
<symbol id="icon-twitter" viewBox="0 0 39 32">
<path fill="#16103e" style="fill: var(--color1, #16103e)" d="M38.22 3.64c-1.401 0.637-2.909 1.055-4.473 1.254 1.61-0.981 2.819-2.484 3.401-4.271l0.016-0.055c-1.423 0.864-3.079 1.525-4.844 1.891l-0.102 0.018c-1.436-1.564-3.453-2.473-5.745-2.473-4.273 0-7.764 3.491-7.764 7.799 0 0.618 0.073 1.219 0.201 1.783-6.495-0.339-12.207-3.424-16.042-8.106l-0.031-0.039c-0.663 1.115-1.055 2.459-1.055 3.894 0 0.005 0 0.010 0 0.015v-0.001c0 2.708 1.363 5.11 3.472 6.473-1.29 0-2.49-0.364-3.545-0.909v0.054c0 3.782 2.691 6.947 6.255 7.655-0.607 0.173-1.304 0.272-2.024 0.272-0.526 0-1.039-0.053-1.535-0.154l0.049 0.008c1.017 3.125 3.876 5.356 7.265 5.42l0.007 0c-2.616 2.085-5.969 3.346-9.617 3.346-0.026 0-0.052-0-0.078-0h0.004c-0.618 0-1.236-0.038-1.855-0.111 3.376 2.201 7.507 3.51 11.945 3.51 0.007 0 0.013 0 0.020 0h-0.001c14.327 0 22.199-11.891 22.199-22.199 0-0.346 0-0.673-0.017-1.018 1.527-1.091 2.836-2.473 3.891-4.055z"></path>
</symbol>
<symbol id="icon-telegram" viewBox="0 0 38 32">
<path fill="#16103e" style="fill: var(--color1, #16103e)" d="M34.674 0.938l-32.245 12.435c-2.201 0.885-2.188 2.111-0.405 2.66l8.279 2.581 19.156-12.086c0.905-0.55 1.733-0.255 1.053 0.349l-15.521 14.008-0.57 8.535c0.837 0 1.206-0.384 1.675-0.837l4.022-3.911 8.364 6.18c1.542 0.848 2.651 0.412 3.034-1.429l5.491-25.878c0.563-2.252-0.86-3.274-2.331-2.607z"></path>
</symbol>
<symbol id="icon-mga" viewBox="0 0 83 32">
<path fill="#16103e" style="fill: var(--color1, #16103e)" opacity="0.5" d="M16.741 5.388v10.004l-5.311-14.47c-0.63-1.608 0.81-0.626 0.81-0.626l3.060 2.323c1.44 1.071 1.44 2.768 1.44 2.768zM11.43 29.771l5.311-14.379-15.032 5.090c-1.711 0.537-0.63-0.803-0.63-0.803l2.34-2.858c1.080-1.34 2.88-1.34 2.88-1.34s-1.8 0-2.88-1.34l-2.34-2.857s-1.081-1.34 0.63-0.804l15.032 5.092v10.004s0 1.696-1.44 2.768l-3.060 2.054s-1.44 0.982-0.81-0.626zM76.693 16.284v3.037c-0.361 0.268-1.261 0.625-2.431 0.625-1.26 0-2.070-0.536-2.070-1.696 0-0.714 0.27-1.161 0.72-1.429 0.45-0.268 1.171-0.447 1.981-0.447l1.8-0.090zM77.953 23.698h4.411c-0.27-0.893-0.27-2.233-0.27-3.215v-7.413c0-4.019-2.161-6.341-7.292-6.341-2.61 0-4.86 0.625-6.841 1.607l1.621 3.304c1.17-0.625 2.789-0.981 4.23-0.981 1.8 0 2.971 0.625 2.971 2.142v0.179l-2.611 0.090c-1.711 0.089-3.241 0.357-4.41 0.982-1.711 0.894-2.79 2.233-2.79 4.556 0 3.215 2.43 5.448 5.671 5.448 2.070 0 3.51-0.804 4.681-1.786l0.63 1.429zM56.979 15.66c-1.621 0-2.34-1.25-2.34-2.5 0-1.786 0.991-2.591 2.251-2.591 1.621 0 2.43 1.34 2.43 2.591 0 1.607-0.99 2.5-2.34 2.5zM57.339 28.431c-2.611 0-4.14-0.982-4.14-2.322 0-0.714 0.359-1.25 0.72-1.518 1.71 0.892 7.020 0.356 7.020 2.321 0 0.983-1.71 1.519-3.6 1.519zM56.62 32.004c6.39 0 9.362-2.679 9.362-5.626 0-6.162-10.982-3.483-10.982-6.341 0-0.179 0-0.357 0.18-0.714 0.45 0.179 1.171 0.179 1.89 0.179 4.231 0 7.292-2.412 7.292-6.252 0-1.34-0.45-2.679-1.17-3.662 0.269-0.090 0.81-0.179 0.99-0.179 0.45 0 0.99 0.089 1.44 0.179l0.991-3.662c-0.272 0-0.811-0.090-1.171-0.090-2.431 0-3.51 0.626-4.411 1.43-0.18 0.179-0.269 0.179-0.45 0.089-0.72-0.446-1.98-0.804-3.51-0.804-5.131 0-7.202 3.305-7.202 6.252 0 2.144 0.991 4.198 2.97 5.18-1.349 0.714-2.251 1.876-2.251 3.037 0 0.803 0.361 1.607 1.081 2.054-1.53 0.535-2.97 1.875-2.97 3.84-0.181 2.947 2.61 5.090 7.92 5.090zM20.252 23.699h5.312v-11.344c0.99-0.714 2.16-1.072 3.241-1.072 1.98 0 2.16 1.429 2.16 3.036v9.378h5.312v-11.343c0.99-0.714 2.16-1.072 3.151-1.072 1.98 0 2.251 1.339 2.251 2.947v9.467h5.311v-10.807c0-4.645-2.88-6.163-5.941-6.163-1.711 0-3.871 0.714-5.85 2.323-0.901-1.43-2.431-2.323-4.591-2.323-1.981 0-3.871 0.983-5.492 2.144l-0.359-1.697h-4.501v16.523z"></path>
</symbol>
<symbol id="icon-siq" viewBox="0 0 72 32">
<path fill="#16103e" style="fill: var(--color1, #16103e)" opacity="0.5" d="M0.034 31.959h72.236v-4.577h-72.236v4.577zM66.234 16.269c0-0.544-0.541-1.896-2.239-3.048-1.626-1.104-4.336-2.080-8.696-2.080h-0.008c-4.017 0-6.726 0.88-8.425 1.928-1.785 1.104-2.511 2.44-2.511 3.2 0 0.608 0.239 1.152 0.239 1.16l0.143 0.337 0.351-0.12s1.61-0.561 4.168-0.561c2.75 0 5.42 0.401 7.811 0.96 2.409 0.578 4.446 1.234 6.415 2.022l-0.31-0.11 0.16 0.064 0.159-0.079c0.015 0 2.741-1.376 2.741-3.673zM65.437 16.269c0 1.529-1.633 2.592-2.152 2.88-1.635-0.66-3.651-1.302-5.721-1.807l-0.32-0.066c-2.391-0.602-5.142-0.96-7.971-0.983l-0.015-0c-1.945 0-3.396 0.32-4.049 0.488-0.038-0.153-0.061-0.329-0.064-0.51l-0-0.002c0-0.561 0.614-1.585 2.129-2.521 1.601-0.992 4.168-1.824 8.018-1.824 4.185 0 6.743 0.92 8.258 1.953 1.435 0.976 1.896 2 1.896 2.399l-0.008-0.008z"></path>
<path fill="#16103e" style="fill: var(--color1, #16103e)" opacity="0.5" d="M71.822 21.037c-0.872 0.051-1.745 0.004-2.606-0.136 1.123-0.753 2.789-2.265 2.789-4.633 0-1.664-1.435-3.633-4.304-5.153-2.766-1.472-6.902-2.56-12.41-2.56-4.168 0-8.305 0.784-11.398 2.112-3.187 1.36-5.308 3.313-5.308 5.601-0 0.022-0.001 0.047-0.001 0.073 0 1.121 0.411 2.146 1.090 2.933l-0.005-0.006c-2.472 1.777-3.411 4.112-3.42 4.121l-0.215 0.543h5.046l0.024-0.375c0.107-0.869 0.562-1.616 1.219-2.107l0.008-0.006c0.183 0.136 0.406 0.264 0.662 0.399 0.374 0.184 0.82 0.376 1.322 0.561 2.567 0.96 6.776 1.84 10.975 1.84 4.974 0 8.13-0.912 8.807-1.128 0.607 0.209 3.189 1.024 7.773 1.024h0.397v-3.153l-0.446 0.049zM71.472 23.349c-4.854-0.055-7.213-1.015-7.221-1.024l-0.136-0.055-0.135 0.047c-0.009 0-3.189 1.137-8.689 1.137-3.831-0.003-7.508-0.657-10.928-1.855l0.232 0.071c-0.424-0.154-0.839-0.334-1.244-0.536-0.288-0.142-0.537-0.302-0.765-0.486l0.008 0.006-0.223-0.192-0.247 0.16s-1.467 0.912-1.761 2.521h-3.109c0.801-1.427 1.898-2.6 3.215-3.465l0.037-0.023 0.462-0.296-0.438-0.344s-1.155-0.881-1.155-2.745c0-1.92 1.92-3.633 4.829-4.881 2.997-1.28 7.022-2.039 11.087-2.039 5.364 0 9.374 1.040 12.044 2.464 2.582 1.376 3.881 3.072 3.881 4.456 0 3.057-3.323 4.481-3.332 4.481l-1.171 0.512 1.251 0.239c0.008 0 2.064 0.401 3.506 0.353v1.495z"></path>
<path fill="#16103e" style="fill: var(--color1, #16103e)" opacity="0.5" d="M59.609 20.55c-0.015-0.008-3.81-1.887-10.353-1.887-1.076 0-2.567 0.215-2.567 0.215l-1.036 0.143 0.869 0.585c0.009 0 3.085 2.12 8.768 2.12 1.714 0 4.208-0.433 4.208-0.433l1.219-0.207-1.108-0.536zM55.289 20.926c-3.507 0-5.946-0.817-7.237-1.408 0.398-0.032 0.829-0.064 1.203-0.064 4.081 0 7.039 0.744 8.632 1.28-0.797 0.096-1.793 0.192-2.598 0.192zM0.034 5.011h72.236v-4.609h-72.236v4.609zM33.668 8.964h-5.914v14.976h6.21v-14.969l-0.296-0.008zM20.684 15.708c-0.578-0.17-1.317-0.337-2.071-0.463l-0.121-0.017c-0.703-0.129-1.638-0.257-2.584-0.348l-0.15-0.012c-6.743-0.576-6.679-1.432-6.655-1.777v-0.096c0.008-0.287 0.446-0.576 1.044-0.8 0.7-0.264 1.509-0.417 2.354-0.417 0.044 0 0.088 0 0.131 0.001l-0.007-0c1.132 0.033 2.718 0.32 3.515 0.8 0.136 0.081 0.239 0.169 0.319 0.256 0.047 0.056 0.079 0.113 0.079 0.16v0.312h7.851l-0.024-0.32c-0.079-1.28-1.913-3.024-6.009-3.873-0.712-0.153-1.597-0.285-2.496-0.368l-0.094-0.007c-0.905-0.087-1.957-0.137-3.021-0.137-0.031 0-0.062 0-0.093 0h-0.020c-2.335 0-5.101 0.424-7.277 1.16-2.271 0.761-3.929 1.881-3.929 3.241 0 1.128 1.027 2.784 4.701 3.76 0.695 0.177 1.476 0.337 2.376 0.463 0.885 0.129 1.889 0.232 3.005 0.289 0.582 0.032 0.957 0.079 1.212 0.119 0.236 0.023 0.473 0.051 0.709 0.081 1.627 0.192 2.742 0.512 3.436 0.888 0.607 0.335 0.853 0.68 0.821 0.992v0.008c-0.055 0.528-0.557 1.056-2.088 1.335-0.319 0.065-0.678 0.105-1.093 0.145-0.422 0.033-0.876 0.049-1.386 0.049h-0.017c-2.566 0-4.065-0.329-4.75-0.881-0.109-0.085-0.202-0.186-0.276-0.299l-0.003-0.005c-0.059-0.092-0.104-0.199-0.126-0.314l-0.001-0.006-0.049-0.241h-7.899l0.008 0.32c0.040 1.393 2.073 3.225 6.496 4.105 0.838 0.168 1.761 0.303 2.79 0.399 1.021 0.096 2.128 0.143 3.332 0.152h0.064c4.112 0 7.221-0.64 9.301-1.545 2.176-0.944 3.268-2.192 3.268-3.336 0-1.376-1.14-2.825-4.574-3.777z"></path>
</symbol>
<symbol id="icon-onjn" viewBox="0 0 32 32">
<path fill="#c0bcd9" style="fill: var(--color1, #c0bcd9)" opacity="0.698" d="M10.001 4.401c0.357-0.031 0.772-0.048 1.192-0.048 1.282 0 2.526 0.163 3.711 0.471l-0.102-0.023c-0.481 0.574-0.885 1.234-1.182 1.95l-0.018 0.050c-0.714-0.969-1.381-0.969-2 0-0.874 2.887-1.008 5.82-0.4 8.801 2.187 0.69 2.321 1.356 0.4 2 0.934 0.4 1.6 1.067 2 2 0.249-0.652 0.663-1.195 1.191-1.594l0.009-0.007c0.709 8.371 1.776 8.371 3.2 0 0.612 1.643 1.039 3.547 1.195 5.526l0.005 0.075c0.149-2.029 0.549-3.896 1.2-5.601h0.8c0.833 3.089 1.633 3.089 2.4 0 0.031 0.477 0.049 1.033 0.049 1.594 0 1.7-0.163 3.362-0.475 4.97l0.026-0.163c-0.71-0.641-1.259-1.448-1.587-2.36l-0.013-0.041c-0.574 2.009-1.255 3.735-2.080 5.376l0.080-0.175c-1.307 0.394-2.64 0.528-4 0.4-0.262 0.025-0.567 0.040-0.875 0.040-1.422 0-2.772-0.309-3.986-0.865l0.060 0.025c-0.709-0.66-0.975-1.46-0.8-2.4-1.433 0.107-2.767-0.16-4-0.8-0.057-0.412-0.090-0.888-0.090-1.371 0-1.531 0.328-2.985 0.917-4.296l-0.027 0.066c0.976-0.969 1.91-0.969 2.8 0 0.4-4.526 0.533-9.060 0.4-13.602z"></path>
<path fill="#8985a1" style="fill: var(--color2, #8985a1)" opacity="0.698" d="M10.001 0.4v-0.8h10.401c5.047 2.38 8.781 6.114 11.201 11.201v9.601c-1.067 1.067-1.067 2.134 0 3.2v3.2l-3.2 0.8c-2.438 0.254-3.771-0.813-4-3.2 1.027-1.174 1.954-2.484 2.74-3.884l0.060-0.116c1.947-6.797 0.080-12.131-5.601-16.002-0.4 4.526-0.533 9.060-0.4 13.602h-0.8c0.063-1.072 0.098-2.327 0.098-3.589 0-3.819-0.327-7.562-0.954-11.202l0.055 0.389c-2.382-1.763-4.916-2.030-7.601-0.8-0.189-1.296-0.855-2.096-2-2.4z"></path>
<path fill="#413e59" style="fill: var(--color3, #413e59)" opacity="0.698" d="M10.001 4.401c0.133 4.541 0 9.075-0.4 13.602-0.89-0.969-1.824-0.969-2.8 0-0.562 1.245-0.89 2.699-0.89 4.23 0 0.483 0.033 0.959 0.096 1.425l-0.006-0.054c-3.706-4.709-4.106-9.775-1.2-15.202 1.422-1.832 3.156-3.166 5.201-4z"></path>
<path fill="#57546f" style="fill: var(--color4, #57546f)" opacity="0.698" d="M24.403 24.403c0.245-2.308-0.022-4.442-0.8-6.401-0.767 3.089-1.567 3.089-2.4 0-0.133-4.541 0-9.075 0.4-13.602 5.681 3.871 7.548 9.205 5.601 16.002-0.846 1.517-1.774 2.827-2.823 4.027l0.023-0.027z"></path>
<path fill="#8985a2" style="fill: var(--color5, #8985a2)" opacity="0.698" d="M10.001 0.4c0.85 1.387 0.85 2.72 0 4-2.045 0.835-3.779 2.168-5.201 4-2.906 5.426-2.506 10.493 1.2 15.202 1.234 0.64 2.567 0.907 4 0.8-0.175 0.94 0.091 1.74 0.8 2.4 1.154 0.531 2.504 0.84 3.926 0.84 0.308 0 0.613-0.015 0.913-0.043l-0.038 0.003c-0.136 1.058 0.13 1.991 0.8 2.8-1.089-1.101-2.289-1.768-3.6-2-0.279 0.528-0.443 1.153-0.443 1.817 0 0.206 0.016 0.408 0.046 0.605l-0.003-0.022c-2.638 0.137-2.904-0.396-0.8-1.6-1.845-1.016-3.445-0.75-4.801 0.8-2.071-1.29-4.459-2.379-6.987-3.145l-0.213-0.056v-3.2c1.067-0.8 1.067-1.6 0-2.4v-11.201c1.915-4.849 5.382-8.049 10.401-9.601z"></path>
<path fill="#a7a3bf" style="fill: var(--color6, #a7a3bf)" opacity="0.698" d="M10.001 0.4c1.145 0.304 1.811 1.104 2 2.4 2.685-1.23 5.219-0.962 7.601 0.8 0.572 3.251 0.898 6.993 0.898 10.812 0 1.263-0.036 2.517-0.106 3.762l0.008-0.173c-0.651 1.705-1.051 3.572-1.2 5.601-0.162-2.054-0.588-3.958-1.248-5.749l0.048 0.148c-1.424 8.371-2.491 8.371-3.2 0-0.537 0.405-0.951 0.948-1.192 1.576l-0.008 0.024c-0.4-0.934-1.067-1.6-2-2 1.921-0.644 1.787-1.311-0.4-2-0.608-2.981-0.474-5.914 0.4-8.801 0.619-0.969 1.286-0.969 2 0 0.316-0.766 0.719-1.427 1.21-2.012l-0.010 0.012c-1.083-0.285-2.327-0.448-3.609-0.448-0.419 0-0.835 0.018-1.245 0.052l0.054-0.004c0.85-1.28 0.85-2.613 0-4z"></path>
<path fill="#807c99" style="fill: var(--color7, #807c99)" opacity="0.698" d="M23.603 18.002c0.779 1.959 1.045 4.092 0.8 6.401 0.23 2.387 1.563 3.454 4 3.2-1.723 1.991-3.856 3.324-6.401 4h-12.801l-2.4-1.6c1.355-1.551 2.956-1.816 4.801-0.8-2.104 1.204-1.838 1.737 0.8 1.6-0.028-0.175-0.043-0.377-0.043-0.583 0-0.664 0.164-1.29 0.454-1.839l-0.010 0.022c1.311 0.232 2.511 0.899 3.6 2-0.67-0.809-0.936-1.743-0.8-2.8 1.36 0.128 2.693-0.006 4-0.4 0.745-1.466 1.426-3.192 1.947-4.986l0.053-0.215c0.341 0.953 0.89 1.759 1.595 2.396l0.005 0.005c0.398-2.117 0.531-4.251 0.4-6.401z"></path>
</symbol>
<symbol id="icon-flag-ge" viewBox="0 0 45 32">
<path fill="#fff" style="fill: var(--color2, #fff); stroke: var(--color3, #f5f5f5)" stroke="#f5f5f5" stroke-linejoin="miter" stroke-linecap="butt" stroke-miterlimit="4" stroke-width="0.8" d="M3.201 0.405h38.406c1.547 0 2.8 1.254 2.8 2.8v25.604c0 1.547-1.254 2.8-2.8 2.8h-38.406c-1.547 0-2.8-1.254-2.8-2.8v-25.604c0-1.547 1.254-2.8 2.8-2.8z"></path>
<path fill="#ff2b37" style="fill: var(--color4, #ff2b37)" d="M25.604 34.143h-6.401v-14.935h-21.335v-6.401h21.335v-14.935h6.401v14.935h21.339v6.401h-21.339v14.935z"></path>
<path fill="#fd0d1b" style="fill: var(--color5, #fd0d1b)" d="M34.564 7.046l-2.559 0.427v-2.135l2.559 0.427-0.427-2.56h2.133l-0.424 2.56 2.56-0.427v2.135l-2.562-0.427 0.426 2.56h-2.133l0.427-2.56zM8.96 7.046l-2.559 0.427v-2.135l2.559 0.427-0.427-2.56h2.133l-0.424 2.56 2.56-0.427v2.135l-2.562-0.427 0.426 2.56h-2.133l0.427-2.56zM8.96 26.249l-2.559 0.427v-2.135l2.559 0.427-0.427-2.56h2.133l-0.424 2.56 2.56-0.427v2.135l-2.562-0.427 0.426 2.56h-2.133l0.427-2.56zM34.564 26.249l-2.559 0.427v-2.135l2.559 0.427-0.427-2.56h2.133l-0.426 2.56 2.562-0.427v2.135l-2.562-0.427 0.426 2.56h-2.133l0.427-2.56z"></path>
</symbol>
<symbol id="icon-flag-lt" viewBox="0 0 45 32">
<path fill="#fff" style="fill: var(--color2, #fff)" d="M3.201 0.005h38.406c1.768 0 3.201 1.433 3.201 3.201v25.604c0 1.768-1.433 3.201-3.201 3.201h-38.406c-1.768 0-3.201-1.433-3.201-3.201v-25.604c0-1.768 1.433-3.201 3.201-3.201z"></path>
<path fill="#139663" style="fill: var(--color6, #139663)" d="M0 21.341h44.807v-10.667h-44.807v10.667z"></path>
<path fill="#d8343d" style="fill: var(--color7, #d8343d)" d="M0 32.010h44.807v-10.669h-44.807v10.669z"></path>
<path fill="#fec34b" style="fill: var(--color8, #fec34b)" d="M0 10.674h44.807v-10.669h-44.807v10.669z"></path>
</symbol>
</defs>
</svg>


