<svg aria-hidden="true" style="position: absolute; width: 0; height: 0; overflow: hidden;" version="1.1" xmlns="http://www.w3.org/2000/svg" xmlns:xlink="http://www.w3.org/1999/xlink">
<defs>
<symbol id="icon-menu" viewBox="0 0 32 32">
<path fill="#16103e" style="fill: var(--color2, #16103e)" opacity="0.8" d="M9.201 10.401h13.602c0.663 0 1.2 0.537 1.2 1.2s-0.537 1.2-1.2 1.2h-13.602c-0.663 0-1.2-0.537-1.2-1.2s0.537-1.2 1.2-1.2z"></path>
<path fill="#16103e" style="fill: var(--color2, #16103e)" opacity="0.8" d="M9.201 15.202h13.602c0.663 0 1.2 0.537 1.2 1.2s-0.537 1.2-1.2 1.2h-13.602c-0.663 0-1.2-0.537-1.2-1.2s0.537-1.2 1.2-1.2z"></path>
<path fill="#16103e" style="fill: var(--color2, #16103e)" opacity="0.8" d="M9.201 20.002h13.602c0.663 0 1.2 0.537 1.2 1.2s-0.537 1.2-1.2 1.2h-13.602c-0.663 0-1.2-0.537-1.2-1.2s0.537-1.2 1.2-1.2z"></path>
</symbol>
<symbol id="icon-logo" viewBox="0 0 30 32">
<path fill="#EA1D25" style="fill: var(--color3, #EA1D25)" d="M29.299 5.811v0.37c-0.074 0.89-0.149 1.854-0.298 2.743-0.149 0.89-1.12 1.483-1.941 1.112-1.867-0.668-3.883-1.186-5.824-1.557-3.806-0.668-7.689-0.816-11.571-0.223-0.15 0-0.374 0.074-0.524 0.074-1.269 0.223-2.538 0.446-3.732 0.742-1.269 0.37-1.718 1.334-1.792 2.298 0 1.186 0.522 2.299 1.419 2.966l0.074 0.074c-0.373-0.297-0.821-0.593-1.269-0.964-2.165-1.854-3.583-4.449-3.806-7.266v-0.37c0-1.557 0.969-2.966 2.314-3.559 0.074 0 0.149-0.074 0.224-0.074h0.074c6.42-2.223 13.139-2.595 19.485-1.26 1.493 0.297 2.911 0.741 4.33 1.186 0.149 0.073 0.298 0.073 0.448 0.149 1.417 0.592 2.389 1.927 2.389 3.558z"></path>
<path fill="#981b1e" style="fill: var(--color4, #981b1e)" d="M18.25 15.449c0 0.668-0.149 1.261-0.448 1.78 0 0 0 0.074-0.074 0.074-0.448 0.889-0.972 1.78-1.568 2.595-0.597-0.223-1.269-0.37-1.867-0.593-0.895-0.297-1.717-0.668-2.612-1.038-2.24-1.038-4.481-2.224-6.496-3.707-0.074-0.074-0.149-0.074-0.149-0.149l-0.075-0.074c-0.895-0.741-1.417-1.78-1.417-2.965 0.074-0.965 0.522-1.928 1.791-2.299 1.194-0.297 2.463-0.594 3.733-0.742 0.522 0.37 1.045 0.742 1.641 1.038 1.278 0.78 2.821 1.596 4.412 2.326l0.291 0.12c0.224 0.075 0.522 0.223 0.746 0.297 1.269 0.594 2.092 1.854 2.092 3.338z"></path>
<path fill="#EA1D25" style="fill: var(--color3, #EA1D25)" d="M25.941 17.747c-0.075 3.114-6.57 11.122-9.407 12.9-1.12 0.594-2.538 0.668-3.658 0.074-0.972-0.593-1.717-1.334-2.463-2.149-0.598-0.594-0.524-1.484 0.074-2.077 1.045-0.964 2.015-1.928 2.911-2.966 1.643-1.927 3.135-4.003 4.33-6.227 1.12-1.78 0.299-4.374-1.567-5.265 1.12 0.446 2.314 0.816 3.434 1.186 2.837 0.816 6.271 0.816 6.346 4.523z"></path>
</symbol>
<symbol id="icon-close" viewBox="0 0 32 32">
<path fill="#16103e" style="fill: var(--color2, #16103e)" opacity="0.5" d="M16.467 17.867l-6.767 6.767c-0.176 0.173-0.416 0.281-0.682 0.283h-0c-0.016 0.001-0.034 0.002-0.052 0.002-0.261 0-0.497-0.109-0.665-0.284l-0-0c-0.185-0.175-0.3-0.423-0.3-0.697 0-0.001 0-0.002 0-0.003v0c0-0.267 0.1-0.5 0.3-0.7l6.767-6.767-6.767-6.767c-0.173-0.176-0.281-0.417-0.283-0.684v-0c-0.001-0.015-0.001-0.033-0.001-0.051 0-0.261 0.109-0.497 0.284-0.665l0-0c0.175-0.185 0.423-0.3 0.697-0.3 0.001 0 0.002 0 0.003 0h-0c0.267 0 0.5 0.1 0.7 0.3l6.767 6.767 6.767-6.767c0.176-0.174 0.417-0.282 0.684-0.284h0c0.014-0.001 0.031-0.001 0.048-0.001 0.262 0 0.499 0.109 0.667 0.285l0 0c0.185 0.175 0.3 0.423 0.3 0.697 0 0.001 0 0.002 0 0.003v-0c0 0.001 0 0.002 0 0.003 0 0.274-0.115 0.522-0.3 0.697l-0 0-6.767 6.767 6.767 6.767c0.173 0.176 0.281 0.416 0.283 0.682v0c0.001 0.016 0.002 0.034 0.002 0.052 0 0.261-0.109 0.497-0.284 0.665l-0 0c-0.175 0.185-0.423 0.3-0.697 0.3-0.001 0-0.002 0-0.003 0h0c-0.001 0-0.002 0-0.003 0-0.274 0-0.522-0.115-0.697-0.3l-0-0-6.767-6.767z"></path>
</symbol>
<symbol id="icon-down" viewBox="0 0 44 32">
<path fill="#16103e" style="fill: var(--color2, #16103e)" opacity="0.5" d="M22.619 28.080c-0.486-0-0.949-0.094-1.374-0.265l0.025 0.009c-0.45-0.172-0.835-0.425-1.153-0.745l-18.015-18.015c-0.555-0.527-0.901-1.269-0.901-2.093 0-0.003 0-0.006 0-0.009v0c0-0.801 0.3-1.501 0.901-2.106 0.526-0.553 1.268-0.897 2.089-0.897 0.004 0 0.009 0 0.013 0h-0.001c0.801 0 1.501 0.3 2.102 0.897l16.313 16.313 16.313-16.309c0.526-0.555 1.269-0.901 2.093-0.901 0.003 0 0.006 0 0.009 0h-0c0.801 0 1.501 0.3 2.102 0.897 0.555 0.527 0.901 1.269 0.901 2.093 0 0.004 0 0.009-0 0.013v-0.001c0 0.003 0 0.006 0 0.009 0 0.824-0.346 1.567-0.899 2.092l-0.001 0.001-18.015 18.015c-0.317 0.318-0.7 0.571-1.127 0.737l-0.022 0.008c-0.401 0.162-0.866 0.256-1.353 0.256h-0z"></path>
</symbol>
<symbol id="icon-logo-slot" viewBox="0 0 169 32">
<path fill="#16103e" style="fill: var(--color2, #16103e)" d="M0.577 19.463l3.779-2.236c0.884 2.236 2.572 3.434 5.145 3.434 2.491 0 3.616-0.959 3.616-2.395 0-0.799-0.32-1.438-1.045-1.836-0.724-0.48-1.929-0.959-3.779-1.438-2.009-0.639-3.215-1.118-4.662-2.075-1.366-1.039-2.090-2.555-2.090-4.63 0-1.996 0.724-3.673 2.171-4.79 1.445-1.198 3.215-1.836 5.224-1.836 3.619 0 6.511 1.836 8.039 5.029l-3.697 2.156c-0.884-1.916-2.331-2.875-4.341-2.875-1.849 0-2.975 0.959-2.975 2.236 0 0.718 0.322 1.278 0.885 1.756 0.643 0.399 1.769 0.878 3.376 1.436l1.527 0.48c0.321 0.079 0.804 0.319 1.447 0.559 0.643 0.239 1.125 0.479 1.446 0.638 0.644 0.4 1.689 1.198 2.091 1.996 0.481 0.799 0.804 1.916 0.804 3.194 0 2.075-0.804 3.672-2.252 4.949-1.526 1.198-3.456 1.836-5.867 1.836-4.421-0.080-7.557-2.235-8.842-5.588zM20.352 24.491v-23.312h4.18v23.312h-4.18zM35.707 24.971c-2.412 0-4.421-0.798-6.030-2.395-1.607-1.596-2.411-3.673-2.411-5.988 0-2.395 0.804-4.31 2.412-5.988 1.607-1.676 3.697-2.474 6.029-2.474s4.421 0.798 6.029 2.474c1.609 1.598 2.492 3.594 2.492 5.988 0 2.395-0.804 4.392-2.492 5.988-1.608 1.596-3.617 2.395-6.029 2.395zM35.707 20.899c1.286 0 2.251-0.399 3.135-1.278 0.804-0.799 1.286-1.916 1.286-3.193 0-1.278-0.401-2.315-1.286-3.194-0.804-0.799-1.849-1.278-3.135-1.278s-2.251 0.4-3.135 1.278c-0.804 0.799-1.206 1.916-1.206 3.194 0 1.276 0.402 2.314 1.206 3.193 0.884 0.879 1.929 1.278 3.135 1.278zM56.047 12.516h-3.617v6.627c0 1.756 1.286 1.756 3.619 1.596v3.753c-5.709 0.638-7.799-0.959-7.799-5.349v-6.627h-2.814v-3.994h2.814v-3.192l4.18-1.278v4.47h3.619v3.993zM62.239 18.184c0.563 1.996 2.090 3.034 4.501 3.034 1.609 0 2.814-0.559 3.619-1.596l3.376 1.916c-1.609 2.235-3.939 3.434-6.995 3.434-2.652 0-4.824-0.8-6.431-2.396s-2.412-3.593-2.412-6.068c0-2.394 0.805-4.39 2.412-5.987 1.608-1.598 3.619-2.395 6.11-2.395 2.331 0 4.341 0.798 5.789 2.395 1.526 1.596 2.331 3.592 2.331 5.987 0 0.56-0.081 1.119-0.16 1.678h-12.14zM70.439 14.991c-0.483-2.155-2.090-3.194-4.020-3.194-2.251 0-3.697 1.198-4.18 3.194h8.2zM89.568 8.521h4.019v15.169c0 2.475-0.804 4.312-2.491 5.669-1.609 1.278-3.619 1.915-5.95 1.915-3.456 0-6.19-1.356-7.636-3.912l3.536-1.996c0.805 1.518 2.252 2.236 4.181 2.236 2.572 0 4.18-1.438 4.18-3.913v-1.756c-1.206 1.596-2.894 2.395-5.145 2.395s-4.18-0.799-5.707-2.395c-1.528-1.596-2.252-3.513-2.252-5.828s0.805-4.152 2.332-5.748c1.528-1.598 3.457-2.395 5.707-2.395 2.252 0 3.939 0.798 5.145 2.395v-1.836h0.081zM88.202 13.151c-0.805-0.799-1.93-1.278-3.216-1.278s-2.412 0.4-3.216 1.278c-0.794 0.774-1.287 1.854-1.287 3.049 0 0.023 0 0.046 0.001 0.068l-0-0.003c0 2.554 1.93 4.39 4.502 4.39s4.501-1.835 4.501-4.39c0.081-1.278-0.401-2.315-1.286-3.114zM101.385 11.317c0.804-2.075 2.733-3.033 4.904-3.033v4.63c-1.286-0.16-2.412 0.080-3.376 0.798-0.965 0.64-1.447 1.756-1.447 3.274v7.665h-4.179v-15.969h4.18v2.634h-0.080zM120.598 8.522h4.18v15.968h-4.18v-1.915c-1.286 1.596-2.975 2.314-5.225 2.314-2.171 0-4.020-0.798-5.547-2.394s-2.251-3.673-2.251-5.988c0-2.395 0.804-4.312 2.251-5.988 1.526-1.596 3.376-2.474 5.547-2.474 2.25 0 4.019 0.798 5.225 2.314v-1.836zM116.095 21.057c1.286 0 2.332-0.399 3.216-1.278 0.884-0.878 1.286-1.915 1.286-3.274 0-1.276-0.403-2.394-1.286-3.193-0.804-0.878-1.93-1.278-3.216-1.278s-2.331 0.4-3.215 1.278c-0.804 0.799-1.286 1.916-1.286 3.194s0.401 2.395 1.286 3.274c0.884 0.798 1.929 1.276 3.215 1.276zM137.562 12.516h-3.617v6.627c0 1.756 1.286 1.756 3.617 1.596v3.753c-5.707 0.638-7.797-0.959-7.797-5.349v-6.627h-2.814v-3.994h2.814v-3.192l4.18-1.278v4.47h3.617v3.993zM147.855 24.971c-2.412 0-4.422-0.798-6.030-2.395-1.607-1.596-2.411-3.673-2.411-5.988 0-2.395 0.804-4.31 2.411-5.988 1.607-1.596 3.697-2.474 6.030-2.474 2.411 0 4.421 0.798 6.029 2.474 1.607 1.598 2.492 3.594 2.492 5.988 0 2.395-0.804 4.392-2.492 5.988s-3.697 2.395-6.029 2.395zM147.855 20.899c1.286 0 2.25-0.399 3.135-1.278 0.884-0.878 1.286-1.916 1.286-3.193 0-1.278-0.403-2.315-1.286-3.194-0.804-0.799-1.849-1.278-3.135-1.278s-2.251 0.4-3.136 1.278c-0.804 0.799-1.205 1.916-1.205 3.194 0 1.276 0.401 2.314 1.205 3.193s1.85 1.278 3.136 1.278zM163.207 11.317c0.804-2.075 2.732-3.033 4.904-3.033v4.63c-1.286-0.16-2.412 0.080-3.376 0.798-0.965 0.64-1.447 1.756-1.447 3.274v7.665h-4.18v-15.969h4.18v2.634h-0.080z"></path>
</symbol>
<symbol id="icon-flag" viewBox="0 0 33 32">
<path fill="#dadada" style="fill: var(--color5, #dadada)" d="M16.369 0.006c8.837 0 16 7.163 16 16s-7.163 16-16 16c-8.837 0-16-7.163-16-16s7.163-16 16-16z"></path>
<path fill="#fff" style="fill: var(--color6, #fff)" d="M-2.83 0.006h38.4c1.767 0 3.2 1.433 3.2 3.2v25.6c0 1.767-1.433 3.2-3.2 3.2h-38.4c-1.767 0-3.2-1.433-3.2-3.2v-25.6c0-1.767 1.433-3.2 3.2-3.2z"></path>
<path fill="#262626" style="fill: var(--color7, #262626)" d="M-6.031 10.673h44.8v-10.667h-44.8v10.667z"></path>
<path fill="#f01515" style="fill: var(--color8, #f01515)" d="M-6.031 21.339h44.8v-10.666h-44.8v10.666z"></path>
<path fill="#ffd521" style="fill: var(--color9, #ffd521)" d="M-6.031 32.006h44.8v-10.667h-44.8v10.667z"></path>
</symbol>
<symbol id="icon-email" viewBox="0 0 32 32">
<path fill="#16103e" style="fill: var(--color1, #16103e)" d="M26.68 10.669l-10.669 6.668-10.671-6.668v-2.669l10.671 6.67 10.669-6.67v2.669zM26.68 5.333h-21.34c-1.48 0-2.667 1.186-2.667 2.667v16.005c0 0.001 0 0.001 0 0.002 0 1.473 1.194 2.667 2.667 2.667h21.34c1.473 0 2.667-1.194 2.667-2.667 0-0.001 0-0.001 0-0.002v0-16.003c0-1.473-1.194-2.667-2.667-2.667v0z"></path>
</symbol>
<symbol id="icon-phone" viewBox="0 0 32 32">
<path fill="#16103e" style="fill: var(--color1, #16103e)" d="M8.829 14.39c1.967 3.801 4.989 6.824 8.678 8.738l0.112 0.053 2.933-2.935c0.243-0.246 0.58-0.398 0.953-0.398 0.146 0 0.286 0.023 0.417 0.066l-0.009-0.003c1.494 0.494 3.095 0.76 4.761 0.76 0.737 0 1.334 0.597 1.334 1.334v0 4.667c0 0.001 0 0.001 0 0.002 0 0.736-0.597 1.332-1.332 1.332-0.001 0-0.001 0-0.002 0h0c-12.522 0-22.672-10.151-22.672-22.672v0c0-0.737 0.597-1.334 1.334-1.334v0h4.667c0.737 0 1.334 0.597 1.334 1.334v0c0 1.666 0.266 3.267 0.76 4.761 0.040 0.122 0.064 0.262 0.064 0.408 0 0.373-0.152 0.709-0.398 0.952l-2.935 2.933z"></path>
</symbol>
<symbol id="icon-skype" viewBox="0 0 32 32">
<path fill="#16103e" style="fill: var(--color1, #16103e)" d="M24.007 8.002c2.063 2.038 3.34 4.867 3.34 7.994 0 0.734-0.070 1.451-0.205 2.145l0.011-0.071c0.54 0.942 0.859 2.070 0.859 3.274 0 3.683-2.985 6.668-6.668 6.668-1.203 0-2.332-0.319-3.306-0.876l0.033 0.017c-0.624 0.123-1.341 0.193-2.075 0.193-3.127 0-5.956-1.277-7.993-3.339l-0.001-0.001c-2.063-2.039-3.34-4.868-3.34-7.995 0-0.733 0.070-1.45 0.204-2.145l-0.011 0.071c-0.54-0.942-0.859-2.071-0.859-3.274 0-3.683 2.985-6.668 6.668-6.668 1.203 0 2.332 0.319 3.306 0.876l-0.033-0.017c0.624-0.123 1.34-0.193 2.074-0.193 3.127 0 5.956 1.277 7.994 3.339l0.001 0.001zM16.059 22.887c3.827 0 5.734-1.841 5.734-4.321 0-1.586-0.746-3.281-3.641-3.935l-2.653-0.586c-1.014-0.226-2.161-0.534-2.161-1.48 0-0.96 0.8-1.626 2.267-1.626 2.975 0 2.695 2.041 4.175 2.041 0.772 0 1.44-0.454 1.44-1.24 0-1.829-2.921-3.201-5.402-3.201-2.681 0-5.55 1.146-5.55 4.187 0 1.466 0.52 3.027 3.401 3.747l3.589 0.908c1.080 0.266 1.346 0.866 1.346 1.426 0 0.906-0.906 1.8-2.547 1.8-3.215 0-2.775-2.467-4.495-2.467-0.774 0-1.334 0.532-1.334 1.292 0 1.48 1.774 3.455 5.83 3.455z"></path>
</symbol>
<symbol id="icon-linkedin" viewBox="0 0 32 32">
<path fill="#16103e" style="fill: var(--color1, #16103e)" d="M30.375 0.375h-28.748c-0.001 0-0.002 0-0.003 0-0.689 0-1.248 0.559-1.248 1.248 0 0.001 0 0.002 0 0.003v-0 28.748c0 0.692 0.56 1.251 1.251 1.251h28.747c0 0 0.001 0 0.001 0 0.69 0 1.249-0.559 1.249-1.249 0-0 0-0.001 0-0.001v0-28.747c0-0.001 0-0.003 0-0.004 0-0.69-0.559-1.249-1.249-1.249-0 0-0.001 0-0.001 0h0zM9.644 27.004h-4.636v-14.915h4.636v14.915zM7.328 10.051c-0.018 0-0.039 0.001-0.060 0.001-1.485 0-2.688-1.203-2.688-2.688s1.203-2.688 2.688-2.688c0.021 0 0.042 0 0.063 0.001l-0.003-0c1.459 0.034 2.628 1.224 2.628 2.687s-1.17 2.654-2.625 2.687l-0.003 0zM27.004 27.004h-4.633v-7.253c0-1.731-0.031-3.953-2.409-3.953-2.411 0-2.781 1.883-2.781 3.827v7.38h-4.629v-14.915h4.445v2.040h0.063c0.617-1.173 2.129-2.411 4.387-2.411 4.695 0 5.559 3.089 5.559 7.107v8.179z"></path>
</symbol>
<symbol id="icon-youtube" viewBox="0 0 43 32">
<path fill="#16103e" style="fill: var(--color1, #16103e)" d="M42.203 5.887c-0.499-1.815-1.898-3.216-3.675-3.708l-0.037-0.009c-3.277-0.883-16.411-0.883-16.411-0.883s-13.134 0-16.411 0.877c-1.815 0.5-3.215 1.901-3.703 3.68l-0.009 0.037c-0.877 3.282-0.877 10.126-0.877 10.126s0 6.843 0.877 10.12c0.499 1.815 1.898 3.216 3.675 3.708l0.037 0.009c3.277 0.883 16.411 0.883 16.411 0.883s13.134 0 16.411-0.88c1.815-0.5 3.215-1.902 3.703-3.681l0.009-0.037c0.877-3.277 0.877-10.12 0.877-10.12s0-6.843-0.877-10.12zM17.909 22.287v-12.56l10.874 6.234-10.874 6.328z"></path>
</symbol>
<symbol id="icon-facebook" viewBox="0 0 32 32">
<path fill="#16103e" style="fill: var(--color1, #16103e)" d="M15.517 0.618c-8.499 0-15.389 6.89-15.389 15.389 0 7.679 5.627 14.044 12.984 15.203v-10.755h-3.909v-4.448h3.909v-3.391c0-3.86 2.299-5.989 5.811-5.989 1.684 0 3.447 0.3 3.447 0.3v3.783h-1.945c-1.908 0-2.506 1.188-2.506 2.406v2.885h4.265l-0.682 4.45h-3.583v10.755c7.359-1.152 12.985-7.519 12.985-15.2 0-8.499-6.891-15.389-15.39-15.389z"></path>
</symbol>
<symbol id="icon-instagram" viewBox="0 0 33 32">
<path fill="#16103e" style="fill: var(--color1, #16103e)" d="M16.536 10.792c-2.873 0.008-5.199 2.335-5.206 5.207v0.001c0.007 2.874 2.335 5.202 5.208 5.208h0.001c2.873-0.007 5.2-2.334 5.206-5.207v-0.001c-0.006-2.874-2.334-5.202-5.207-5.208h-0.001zM32.159 16c0-2.156 0.019-4.294-0.101-6.447-0.121-2.5-0.693-4.721-2.52-6.548-1.832-1.832-4.047-2.4-6.548-2.52-2.159-0.12-4.295-0.101-6.448-0.101-2.156 0-4.294-0.020-6.447 0.101-2.5 0.12-4.721 0.692-6.548 2.52-1.832 1.832-2.4 4.046-2.52 6.548-0.12 2.156-0.101 4.294-0.101 6.447s-0.020 4.294 0.101 6.447c0.12 2.5 0.691 4.72 2.52 6.548 1.832 1.832 4.047 2.399 6.548 2.52 2.156 0.12 4.294 0.101 6.447 0.101 2.156 0 4.294 0.019 6.447-0.101 2.5-0.121 4.72-0.692 6.548-2.52 1.832-1.832 2.399-4.047 2.52-6.548 0.124-2.152 0.101-4.29 0.101-6.447zM16.536 24.013c-0.004 0-0.008 0-0.012 0-4.419 0-8.001-3.582-8.001-8.001 0-0.005 0-0.009 0-0.014v0.001c0-0.003 0-0.007 0-0.011 0-4.419 3.582-8.001 8.001-8.001 0.004 0 0.008 0 0.013 0h-0.001c0.004 0 0.009 0 0.013 0 4.419 0 8.001 3.582 8.001 8.001 0 0.004 0 0.008 0 0.013v-0.001c0 0.004 0 0.008 0 0.012 0 4.419-3.582 8.001-8.001 8.001-0.005 0-0.009 0-0.014 0h0.001zM24.878 9.531c-0.001 0-0.002 0-0.003 0-1.033 0-1.87-0.837-1.87-1.87 0-0.001 0-0.002 0-0.003v0c0-1.035 0.836-1.871 1.872-1.871 0.001 0 0.003 0 0.004 0 1.033 0 1.87 0.837 1.87 1.87 0 0.518-0.211 0.987-0.551 1.325l-0 0c-0.338 0.338-0.806 0.547-1.322 0.547-0 0-0.001 0-0.001 0h0z"></path>
</symbol>
<symbol id="icon-twitter" viewBox="0 0 39 32">
<path fill="#16103e" style="fill: var(--color1, #16103e)" d="M38.22 3.64c-1.401 0.637-2.909 1.055-4.473 1.254 1.61-0.981 2.819-2.484 3.401-4.271l0.016-0.055c-1.423 0.864-3.079 1.525-4.844 1.891l-0.102 0.018c-1.436-1.564-3.453-2.473-5.745-2.473-4.273 0-7.764 3.491-7.764 7.799 0 0.618 0.073 1.219 0.201 1.783-6.495-0.339-12.207-3.424-16.042-8.106l-0.031-0.039c-0.663 1.115-1.055 2.459-1.055 3.894 0 0.005 0 0.010 0 0.015v-0.001c0 2.708 1.363 5.11 3.472 6.473-1.29 0-2.49-0.364-3.545-0.909v0.054c0 3.782 2.691 6.947 6.255 7.655-0.607 0.173-1.304 0.272-2.024 0.272-0.526 0-1.039-0.053-1.535-0.154l0.049 0.008c1.017 3.125 3.876 5.356 7.265 5.42l0.007 0c-2.616 2.085-5.969 3.346-9.617 3.346-0.026 0-0.052-0-0.078-0h0.004c-0.618 0-1.236-0.038-1.855-0.111 3.376 2.201 7.507 3.51 11.945 3.51 0.007 0 0.013 0 0.020 0h-0.001c14.327 0 22.199-11.891 22.199-22.199 0-0.346 0-0.673-0.017-1.018 1.527-1.091 2.836-2.473 3.891-4.055z"></path>
</symbol>
<symbol id="icon-telegram" viewBox="0 0 38 32">
<path fill="#16103e" style="fill: var(--color1, #16103e)" d="M34.674 0.938l-32.245 12.435c-2.201 0.885-2.188 2.111-0.405 2.66l8.279 2.581 19.156-12.086c0.905-0.55 1.733-0.255 1.053 0.349l-15.521 14.008-0.57 8.535c0.837 0 1.206-0.384 1.675-0.837l4.022-3.911 8.364 6.18c1.542 0.848 2.651 0.412 3.034-1.429l5.491-25.878c0.563-2.252-0.86-3.274-2.331-2.607z"></path>
</symbol>
</defs>
</svg>


