<svg aria-hidden="true" style="position: absolute; width: 0; height: 0; overflow: hidden;" version="1.1" xmlns="http://www.w3.org/2000/svg" xmlns:xlink="http://www.w3.org/1999/xlink">
<defs>
<symbol id="icon-telegram" viewBox="0 0 38 32">
<path fill="#16103e" style="fill: var(--color1, #16103e)" d="M34.674 0.938l-32.245 12.435c-2.201 0.885-2.188 2.111-0.405 2.66l8.279 2.581 19.156-12.086c0.905-0.55 1.733-0.255 1.053 0.349l-15.521 14.008-0.57 8.535c0.837 0 1.206-0.384 1.675-0.837l4.022-3.911 8.364 6.18c1.542 0.848 2.651 0.412 3.034-1.429l5.491-25.878c0.563-2.252-0.86-3.274-2.331-2.607z"></path>
</symbol>
<symbol id="icon-mdi_email" viewBox="0 0 32 32">
<path fill="#16103e" style="fill: var(--color1, #16103e)" d="M26.68 10.669l-10.669 6.668-10.671-6.668v-2.669l10.671 6.67 10.669-6.67v2.669zM26.68 5.333h-21.34c-1.48 0-2.667 1.186-2.667 2.667v16.005c0 0.001 0 0.001 0 0.002 0 1.473 1.194 2.667 2.667 2.667h21.34c1.473 0 2.667-1.194 2.667-2.667 0-0.001 0-0.001 0-0.002v0-16.003c0-1.473-1.194-2.667-2.667-2.667v0z"></path>
</symbol>
<symbol id="icon-mdi_phone" viewBox="0 0 32 32">
<path fill="#16103e" style="fill: var(--color1, #16103e)" d="M8.829 14.39c1.967 3.801 4.989 6.824 8.678 8.738l0.112 0.053 2.933-2.935c0.243-0.246 0.58-0.398 0.953-0.398 0.146 0 0.286 0.023 0.417 0.066l-0.009-0.003c1.494 0.494 3.095 0.76 4.761 0.76 0.737 0 1.334 0.597 1.334 1.334v0 4.667c0 0.001 0 0.001 0 0.002 0 0.736-0.597 1.332-1.332 1.332-0.001 0-0.001 0-0.002 0h0c-12.522 0-22.672-10.151-22.672-22.672v0c0-0.737 0.597-1.334 1.334-1.334v0h4.667c0.737 0 1.334 0.597 1.334 1.334v0c0 1.666 0.266 3.267 0.76 4.761 0.040 0.122 0.064 0.262 0.064 0.408 0 0.373-0.152 0.709-0.398 0.952l-2.935 2.933z"></path>
</symbol>
<symbol id="icon-skype" viewBox="0 0 32 32">
<path fill="#16103e" style="fill: var(--color1, #16103e)" d="M24.007 8.002c2.063 2.038 3.34 4.867 3.34 7.994 0 0.734-0.070 1.451-0.205 2.145l0.011-0.071c0.54 0.942 0.859 2.070 0.859 3.274 0 3.683-2.985 6.668-6.668 6.668-1.203 0-2.332-0.319-3.306-0.876l0.033 0.017c-0.624 0.123-1.341 0.193-2.075 0.193-3.127 0-5.956-1.277-7.993-3.339l-0.001-0.001c-2.063-2.039-3.34-4.868-3.34-7.995 0-0.733 0.070-1.45 0.204-2.145l-0.011 0.071c-0.54-0.942-0.859-2.071-0.859-3.274 0-3.683 2.985-6.668 6.668-6.668 1.203 0 2.332 0.319 3.306 0.876l-0.033-0.017c0.624-0.123 1.34-0.193 2.074-0.193 3.127 0 5.956 1.277 7.994 3.339l0.001 0.001zM16.059 22.887c3.827 0 5.734-1.841 5.734-4.321 0-1.586-0.746-3.281-3.641-3.935l-2.653-0.586c-1.014-0.226-2.161-0.534-2.161-1.48 0-0.96 0.8-1.626 2.267-1.626 2.975 0 2.695 2.041 4.175 2.041 0.772 0 1.44-0.454 1.44-1.24 0-1.829-2.921-3.201-5.402-3.201-2.681 0-5.55 1.146-5.55 4.187 0 1.466 0.52 3.027 3.401 3.747l3.589 0.908c1.080 0.266 1.346 0.866 1.346 1.426 0 0.906-0.906 1.8-2.547 1.8-3.215 0-2.775-2.467-4.495-2.467-0.774 0-1.334 0.532-1.334 1.292 0 1.48 1.774 3.455 5.83 3.455z"></path>
</symbol>
<symbol id="icon-linkedin" viewBox="0 0 32 32">
<path fill="#16103e" style="fill: var(--color1, #16103e)" d="M30.375 0.375h-28.748c-0.001 0-0.002 0-0.003 0-0.689 0-1.248 0.559-1.248 1.248 0 0.001 0 0.002 0 0.003v-0 28.748c0 0.692 0.56 1.251 1.251 1.251h28.747c0 0 0.001 0 0.001 0 0.69 0 1.249-0.559 1.249-1.249 0-0 0-0.001 0-0.001v0-28.747c0-0.001 0-0.003 0-0.004 0-0.69-0.559-1.249-1.249-1.249-0 0-0.001 0-0.001 0h0zM9.644 27.004h-4.636v-14.915h4.636v14.915zM7.328 10.051c-0.018 0-0.039 0.001-0.060 0.001-1.485 0-2.688-1.203-2.688-2.688s1.203-2.688 2.688-2.688c0.021 0 0.042 0 0.063 0.001l-0.003-0c1.459 0.034 2.628 1.224 2.628 2.687s-1.17 2.654-2.625 2.687l-0.003 0zM27.004 27.004h-4.633v-7.253c0-1.731-0.031-3.953-2.409-3.953-2.411 0-2.781 1.883-2.781 3.827v7.38h-4.629v-14.915h4.445v2.040h0.063c0.617-1.173 2.129-2.411 4.387-2.411 4.695 0 5.559 3.089 5.559 7.107v8.179z"></path>
</symbol>
<symbol id="icon-youtube" viewBox="0 0 43 32">
<path fill="#16103e" style="fill: var(--color1, #16103e)" d="M42.203 5.887c-0.499-1.815-1.898-3.216-3.675-3.708l-0.037-0.009c-3.277-0.883-16.411-0.883-16.411-0.883s-13.134 0-16.411 0.877c-1.815 0.5-3.215 1.901-3.703 3.68l-0.009 0.037c-0.877 3.282-0.877 10.126-0.877 10.126s0 6.843 0.877 10.12c0.499 1.815 1.898 3.216 3.675 3.708l0.037 0.009c3.277 0.883 16.411 0.883 16.411 0.883s13.134 0 16.411-0.88c1.815-0.5 3.215-1.902 3.703-3.681l0.009-0.037c0.877-3.277 0.877-10.12 0.877-10.12s0-6.843-0.877-10.12zM17.909 22.287v-12.56l10.874 6.234-10.874 6.328z"></path>
</symbol>
<symbol id="icon-facebook" viewBox="0 0 32 32">
<path fill="#16103e" style="fill: var(--color1, #16103e)" d="M15.517 0.618c-8.499 0-15.389 6.89-15.389 15.389 0 7.679 5.627 14.044 12.984 15.203v-10.755h-3.909v-4.448h3.909v-3.391c0-3.86 2.299-5.989 5.811-5.989 1.684 0 3.447 0.3 3.447 0.3v3.783h-1.945c-1.908 0-2.506 1.188-2.506 2.406v2.885h4.265l-0.682 4.45h-3.583v10.755c7.359-1.152 12.985-7.519 12.985-15.2 0-8.499-6.891-15.389-15.39-15.389z"></path>
</symbol>
<symbol id="icon-instagram" viewBox="0 0 33 32">
<path fill="#16103e" style="fill: var(--color1, #16103e)" d="M16.536 10.792c-2.873 0.008-5.199 2.335-5.206 5.207v0.001c0.007 2.874 2.335 5.202 5.208 5.208h0.001c2.873-0.007 5.2-2.334 5.206-5.207v-0.001c-0.006-2.874-2.334-5.202-5.207-5.208h-0.001zM32.159 16c0-2.156 0.019-4.294-0.101-6.447-0.121-2.5-0.693-4.721-2.52-6.548-1.832-1.832-4.047-2.4-6.548-2.52-2.159-0.12-4.295-0.101-6.448-0.101-2.156 0-4.294-0.020-6.447 0.101-2.5 0.12-4.721 0.692-6.548 2.52-1.832 1.832-2.4 4.046-2.52 6.548-0.12 2.156-0.101 4.294-0.101 6.447s-0.020 4.294 0.101 6.447c0.12 2.5 0.691 4.72 2.52 6.548 1.832 1.832 4.047 2.399 6.548 2.52 2.156 0.12 4.294 0.101 6.447 0.101 2.156 0 4.294 0.019 6.447-0.101 2.5-0.121 4.72-0.692 6.548-2.52 1.832-1.832 2.399-4.047 2.52-6.548 0.124-2.152 0.101-4.29 0.101-6.447zM16.536 24.013c-0.004 0-0.008 0-0.012 0-4.419 0-8.001-3.582-8.001-8.001 0-0.005 0-0.009 0-0.014v0.001c0-0.003 0-0.007 0-0.011 0-4.419 3.582-8.001 8.001-8.001 0.004 0 0.008 0 0.013 0h-0.001c0.004 0 0.009 0 0.013 0 4.419 0 8.001 3.582 8.001 8.001 0 0.004 0 0.008 0 0.013v-0.001c0 0.004 0 0.008 0 0.012 0 4.419-3.582 8.001-8.001 8.001-0.005 0-0.009 0-0.014 0h0.001zM24.878 9.531c-0.001 0-0.002 0-0.003 0-1.033 0-1.87-0.837-1.87-1.87 0-0.001 0-0.002 0-0.003v0c0-1.035 0.836-1.871 1.872-1.871 0.001 0 0.003 0 0.004 0 1.033 0 1.87 0.837 1.87 1.87 0 0.518-0.211 0.987-0.551 1.325l-0 0c-0.338 0.338-0.806 0.547-1.322 0.547-0 0-0.001 0-0.001 0h0z"></path>
</symbol>
<symbol id="icon-twitter" viewBox="0 0 39 32">
<path fill="#16103e" style="fill: var(--color1, #16103e)" d="M38.22 3.64c-1.401 0.637-2.909 1.055-4.473 1.254 1.61-0.981 2.819-2.484 3.401-4.271l0.016-0.055c-1.423 0.864-3.079 1.525-4.844 1.891l-0.102 0.018c-1.436-1.564-3.453-2.473-5.745-2.473-4.273 0-7.764 3.491-7.764 7.799 0 0.618 0.073 1.219 0.201 1.783-6.495-0.339-12.207-3.424-16.042-8.106l-0.031-0.039c-0.663 1.115-1.055 2.459-1.055 3.894 0 0.005 0 0.010 0 0.015v-0.001c0 2.708 1.363 5.11 3.472 6.473-1.29 0-2.49-0.364-3.545-0.909v0.054c0 3.782 2.691 6.947 6.255 7.655-0.607 0.173-1.304 0.272-2.024 0.272-0.526 0-1.039-0.053-1.535-0.154l0.049 0.008c1.017 3.125 3.876 5.356 7.265 5.42l0.007 0c-2.616 2.085-5.969 3.346-9.617 3.346-0.026 0-0.052-0-0.078-0h0.004c-0.618 0-1.236-0.038-1.855-0.111 3.376 2.201 7.507 3.51 11.945 3.51 0.007 0 0.013 0 0.020 0h-0.001c14.327 0 22.199-11.891 22.199-22.199 0-0.346 0-0.673-0.017-1.018 1.527-1.091 2.836-2.473 3.891-4.055z"></path>
</symbol>
</defs>
</svg>
