<svg aria-hidden="true" style="position: absolute; width: 0; height: 0; overflow: hidden;" version="1.1" xmlns="http://www.w3.org/2000/svg" xmlns:xlink="http://www.w3.org/1999/xlink">
<defs>
<symbol id="icon-onjn" viewBox="0 0 32 32">
<path fill="#c0bcd9" style="fill: var(--color1, #c0bcd9)" opacity="0.698" d="M10.001 4.401c0.357-0.031 0.772-0.048 1.192-0.048 1.282 0 2.526 0.163 3.711 0.471l-0.102-0.023c-0.481 0.574-0.885 1.234-1.182 1.95l-0.018 0.050c-0.714-0.969-1.381-0.969-2 0-0.874 2.887-1.008 5.82-0.4 8.801 2.187 0.69 2.321 1.356 0.4 2 0.934 0.4 1.6 1.067 2 2 0.249-0.652 0.663-1.195 1.191-1.594l0.009-0.007c0.709 8.371 1.776 8.371 3.2 0 0.612 1.643 1.039 3.547 1.195 5.526l0.005 0.075c0.149-2.029 0.549-3.896 1.2-5.601h0.8c0.833 3.089 1.633 3.089 2.4 0 0.031 0.477 0.049 1.033 0.049 1.594 0 1.7-0.163 3.362-0.475 4.97l0.026-0.163c-0.71-0.641-1.259-1.448-1.587-2.36l-0.013-0.041c-0.574 2.009-1.255 3.735-2.080 5.376l0.080-0.175c-1.307 0.394-2.64 0.528-4 0.4-0.262 0.025-0.567 0.040-0.875 0.040-1.422 0-2.772-0.309-3.986-0.865l0.060 0.025c-0.709-0.66-0.975-1.46-0.8-2.4-1.433 0.107-2.767-0.16-4-0.8-0.057-0.412-0.090-0.888-0.090-1.371 0-1.531 0.328-2.985 0.917-4.296l-0.027 0.066c0.976-0.969 1.91-0.969 2.8 0 0.4-4.526 0.533-9.060 0.4-13.602z"></path>
<path fill="#8985a1" style="fill: var(--color2, #8985a1)" opacity="0.698" d="M10.001 0.4v-0.8h10.401c5.047 2.38 8.781 6.114 11.201 11.201v9.601c-1.067 1.067-1.067 2.134 0 3.2v3.2l-3.2 0.8c-2.438 0.254-3.771-0.813-4-3.2 1.027-1.174 1.954-2.484 2.74-3.884l0.060-0.116c1.947-6.797 0.080-12.131-5.601-16.002-0.4 4.526-0.533 9.060-0.4 13.602h-0.8c0.063-1.072 0.098-2.327 0.098-3.589 0-3.819-0.327-7.562-0.954-11.202l0.055 0.389c-2.382-1.763-4.916-2.030-7.601-0.8-0.189-1.296-0.855-2.096-2-2.4z"></path>
<path fill="#413e59" style="fill: var(--color3, #413e59)" opacity="0.698" d="M10.001 4.401c0.133 4.541 0 9.075-0.4 13.602-0.89-0.969-1.824-0.969-2.8 0-0.562 1.245-0.89 2.699-0.89 4.23 0 0.483 0.033 0.959 0.096 1.425l-0.006-0.054c-3.706-4.709-4.106-9.775-1.2-15.202 1.422-1.832 3.156-3.166 5.201-4z"></path>
<path fill="#57546f" style="fill: var(--color4, #57546f)" opacity="0.698" d="M24.403 24.403c0.245-2.308-0.022-4.442-0.8-6.401-0.767 3.089-1.567 3.089-2.4 0-0.133-4.541 0-9.075 0.4-13.602 5.681 3.871 7.548 9.205 5.601 16.002-0.846 1.517-1.774 2.827-2.823 4.027l0.023-0.027z"></path>
<path fill="#8985a2" style="fill: var(--color5, #8985a2)" opacity="0.698" d="M10.001 0.4c0.85 1.387 0.85 2.72 0 4-2.045 0.835-3.779 2.168-5.201 4-2.906 5.426-2.506 10.493 1.2 15.202 1.234 0.64 2.567 0.907 4 0.8-0.175 0.94 0.091 1.74 0.8 2.4 1.154 0.531 2.504 0.84 3.926 0.84 0.308 0 0.613-0.015 0.913-0.043l-0.038 0.003c-0.136 1.058 0.13 1.991 0.8 2.8-1.089-1.101-2.289-1.768-3.6-2-0.279 0.528-0.443 1.153-0.443 1.817 0 0.206 0.016 0.408 0.046 0.605l-0.003-0.022c-2.638 0.137-2.904-0.396-0.8-1.6-1.845-1.016-3.445-0.75-4.801 0.8-2.071-1.29-4.459-2.379-6.987-3.145l-0.213-0.056v-3.2c1.067-0.8 1.067-1.6 0-2.4v-11.201c1.915-4.849 5.382-8.049 10.401-9.601z"></path>
<path fill="#a7a3bf" style="fill: var(--color6, #a7a3bf)" opacity="0.698" d="M10.001 0.4c1.145 0.304 1.811 1.104 2 2.4 2.685-1.23 5.219-0.962 7.601 0.8 0.572 3.251 0.898 6.993 0.898 10.812 0 1.263-0.036 2.517-0.106 3.762l0.008-0.173c-0.651 1.705-1.051 3.572-1.2 5.601-0.162-2.054-0.588-3.958-1.248-5.749l0.048 0.148c-1.424 8.371-2.491 8.371-3.2 0-0.537 0.405-0.951 0.948-1.192 1.576l-0.008 0.024c-0.4-0.934-1.067-1.6-2-2 1.921-0.644 1.787-1.311-0.4-2-0.608-2.981-0.474-5.914 0.4-8.801 0.619-0.969 1.286-0.969 2 0 0.316-0.766 0.719-1.427 1.21-2.012l-0.010 0.012c-1.083-0.285-2.327-0.448-3.609-0.448-0.419 0-0.835 0.018-1.245 0.052l0.054-0.004c0.85-1.28 0.85-2.613 0-4z"></path>
<path fill="#807c99" style="fill: var(--color7, #807c99)" opacity="0.698" d="M23.603 18.002c0.779 1.959 1.045 4.092 0.8 6.401 0.23 2.387 1.563 3.454 4 3.2-1.723 1.991-3.856 3.324-6.401 4h-12.801l-2.4-1.6c1.355-1.551 2.956-1.816 4.801-0.8-2.104 1.204-1.838 1.737 0.8 1.6-0.028-0.175-0.043-0.377-0.043-0.583 0-0.664 0.164-1.29 0.454-1.839l-0.010 0.022c1.311 0.232 2.511 0.899 3.6 2-0.67-0.809-0.936-1.743-0.8-2.8 1.36 0.128 2.693-0.006 4-0.4 0.745-1.466 1.426-3.192 1.947-4.986l0.053-0.215c0.341 0.953 0.89 1.759 1.595 2.396l0.005 0.005c0.398-2.117 0.531-4.251 0.4-6.401z"></path>
</symbol>
</defs>
</svg>
