<svg aria-hidden="true" style="position: absolute; width: 0; height: 0; overflow: hidden;" version="1.1" xmlns="http://www.w3.org/2000/svg" xmlns:xlink="http://www.w3.org/1999/xlink">
<defs>
<symbol id="icon-flag-eng" viewBox="0 0 32 32">
<path fill="#dadada" style="fill: var(--color1, #dadada)" d="M16.006 0c8.84 0 16.006 7.166 16.006 16.006s-7.166 16.006-16.006 16.006c-8.84 0-16.006-7.166-16.006-16.006s7.166-16.006 16.006-16.006z"></path>
<path fill="#fff" style="fill: var(--color2, #fff)" d="M-3.202 0h38.413c1.768 0 3.201 1.433 3.201 3.201v25.609c0 1.768-1.433 3.201-3.201 3.201h-38.413c-1.768 0-3.201-1.433-3.201-3.201v-25.609c0-1.768 1.433-3.201 3.201-3.201z"></path>
<path fill="#0a17a7" style="fill: var(--color3, #0a17a7)" d="M-6.403 0h44.816v32.011h-44.816z"></path>
<path fill="#fff" style="fill: var(--color2, #fff)" d="M4.272 21.34l-15.119 10.198 2.386 3.538 19.123-12.898v11.966h10.67v-11.971l19.132 12.903 2.386-3.537-15.12-10.199h10.676v-10.671h-10.679l15.12-10.199-2.387-3.538-19.127 12.902v-11.969h-10.67v11.962l-19.121-12.896-2.385 3.538 15.12 10.199h-10.687v10.671h10.682z"></path>
<path fill="none" stroke="#db1f35" style="stroke: var(--color4, #db1f35)" stroke-linejoin="miter" stroke-linecap="round" stroke-miterlimit="4" stroke-width="1.0671" d="M23.479 10.135l20.272-13.336M25.626 21.924l18.172 12.249M6.412 10.1l-18.956-12.774M8.468 21.775l-21.012 13.934"></path>
<path fill="#e6273e" style="fill: var(--color5, #e6273e)" d="M-6.402 19.207h19.207v12.804h6.402v-12.804h19.207v-6.402h-19.207v-12.804h-6.402v12.804h-19.207v6.402z"></path>
</symbol>
<symbol id="icon-other-lang" viewBox="0 0 32 32">
<path fill="#e6ebee" style="fill: var(--color6, #e6ebee)" d="M16.006 0c8.84 0 16.006 7.166 16.006 16.006s-7.166 16.006-16.006 16.006c-8.84 0-16.006-7.166-16.006-16.006s7.166-16.006 16.006-16.006z"></path>
<path fill="#16103e" style="fill: var(--color7, #16103e)" d="M16.006 27.086c-0.021 0-0.047 0-0.072 0-1.539 0-3.002-0.322-4.327-0.901l0.069 0.027c-1.364-0.588-2.529-1.385-3.513-2.364l0 0c-0.978-0.984-1.774-2.149-2.334-3.441l-0.028-0.072c-0.554-1.257-0.877-2.723-0.877-4.263 0-0.023 0-0.046 0-0.069l-0 0.004c0-1.535 0.292-2.979 0.874-4.331 0.588-1.364 1.385-2.528 2.364-3.512l-0 0c0.983-0.979 2.149-1.776 3.44-2.336l0.072-0.028c1.255-0.553 2.719-0.874 4.258-0.874 0.025 0 0.051 0 0.076 0l-0.004-0c1.535 0 2.98 0.292 4.331 0.874 1.364 0.588 2.528 1.385 3.512 2.364l-0-0c0.978 0.983 1.775 2.149 2.335 3.44l0.028 0.072c0.582 1.352 0.874 2.795 0.874 4.331 0 1.535-0.292 2.98-0.874 4.33-0.588 1.364-1.384 2.53-2.363 3.514l0.001-0.001c-0.983 0.978-2.149 1.775-3.44 2.335l-0.072 0.028c-1.255 0.552-2.718 0.873-4.257 0.873-0.026 0-0.052-0-0.077-0l0.004 0zM14.84 25.279v-2.275c-0.641 0-1.191-0.228-1.647-0.685-0.423-0.409-0.686-0.982-0.686-1.617 0-0.011 0-0.021 0-0.032l-0 0.002v-1.167l-5.599-5.598c-0.059 0.35-0.112 0.699-0.161 1.049-0.046 0.315-0.072 0.68-0.073 1.050v0c0 2.352 0.773 4.413 2.318 6.182s3.494 2.8 5.847 3.090zM22.888 22.304c0.388-0.428 0.739-0.89 1.049-1.386 0.311-0.495 0.569-1.010 0.773-1.545 0.204-0.534 0.36-1.083 0.468-1.647 0.106-0.563 0.159-1.136 0.159-1.72 0-1.905-0.529-3.651-1.588-5.235-1.026-1.541-2.476-2.727-4.183-3.404l-0.061-0.021v0.495c0 0.641-0.228 1.191-0.685 1.647-0.409 0.423-0.982 0.686-1.616 0.686-0.011 0-0.023-0-0.034-0l0.002 0h-2.332v2.333c0 0.33-0.112 0.607-0.335 0.83-0.205 0.208-0.489 0.336-0.804 0.336-0.010 0-0.020-0-0.030-0l0.001 0h-2.332v2.333h6.998c0.33 0 0.607 0.111 0.831 0.335 0.207 0.205 0.335 0.49 0.335 0.804 0 0.010-0 0.019-0 0.029l0-0.001v3.5h1.166c0.506 0 0.963 0.15 1.372 0.451 0.408 0.302 0.689 0.696 0.846 1.182z"></path>
</symbol>
</defs>
</svg>
